<?xml version="1.0" encoding="UTF-8" standalone="no"?>
<!-- Created with Inkscape (http://www.inkscape.org/) -->

<svg
   version="1.1"
   id="svg2"
   width="661.2464"
   height="37.034367"
   viewBox="0 0 661.2464 37.034367"
   sodipodi:docname="legend_ablation_study.pdf"
   xmlns:inkscape="http://www.inkscape.org/namespaces/inkscape"
   xmlns:sodipodi="http://sodipodi.sourceforge.net/DTD/sodipodi-0.dtd"
   xmlns="http://www.w3.org/2000/svg"
   xmlns:svg="http://www.w3.org/2000/svg">
  <defs
     id="defs6">
    <clipPath
       clipPathUnits="userSpaceOnUse"
       id="clipPath18">
      <path
         d="M 27.777,0 H 468.16 c 15.387,0 27.774,6.195 27.774,13.887 0,7.695 -12.387,13.89 -27.774,13.89 H 27.777 C 12.387,27.777 0,21.582 0,13.887 0,6.195 12.387,0 27.777,0 Z"
         id="path16" />
    </clipPath>
    <clipPath
       clipPathUnits="userSpaceOnUse"
       id="clipPath28">
      <path
         d="M 0,0 H 496 V 28 H 0 Z"
         id="path26" />
    </clipPath>
    <clipPath
       clipPathUnits="userSpaceOnUse"
       id="clipPath44">
      <path
         d="M 0,0 H 496 V 28 H 0 Z"
         id="path42" />
    </clipPath>
  </defs>
  <sodipodi:namedview
     id="namedview4"
     pagecolor="#ffffff"
     bordercolor="#111111"
     borderopacity="1"
     inkscape:showpageshadow="0"
     inkscape:pageopacity="0"
     inkscape:pagecheckerboard="1"
     inkscape:deskcolor="#d1d1d1" />
  <g
     id="g8"
     inkscape:groupmode="layer"
     inkscape:label="legend_ablation_study"
     transform="scale(1.3333333)">
    <g
       id="g10" />
    <g
       id="g12">
      <g
         id="g14"
         clip-path="url(#clipPath18)">
        <g
           id="g20">
          <g
             id="g22">
            <g
               id="g24"
               clip-path="url(#clipPath28)">
              <g
                 id="g30">
                <path
                   d="M 0,0 H 496 V 28 H 0 Z"
                   style="fill:#ffffff;fill-opacity:1;fill-rule:nonzero;stroke:none"
                   id="path32" />
              </g>
            </g>
          </g>
        </g>
      </g>
    </g>
    <g
       id="g34">
      <path
         d="M 5.707,24.777 H 490.23 c 1.465,0 2.2,-0.734 2.2,-2.199 V 7.535 c 0,-1.465 -0.735,-2.199 -2.2,-2.199 H 5.707 c -1.465,0 -2.199,0.734 -2.199,2.199 v 15.043 c 0,1.465 0.734,2.199 2.199,2.199 z"
         style="fill:#ffffff;fill-opacity:0.8;fill-rule:nonzero;stroke:none"
         id="path36" />
      <g
         id="g38">
        <g
           id="g40" />
        <g
           id="g52">
          <g
             clip-path="url(#clipPath44)"
             id="g50">
            <g
               id="g48">
              <path
                 d="M 5.707,24.777 H 490.23 c 1.465,0 2.2,-0.734 2.2,-2.199 V 7.535 c 0,-1.465 -0.735,-2.199 -2.2,-2.199 H 5.707 c -1.465,0 -2.199,0.734 -2.199,2.199 v 15.043 c 0,1.465 0.734,2.199 2.199,2.199 z"
                 style="fill:none;stroke:#cccccc;stroke-width:1;stroke-linecap:butt;stroke-linejoin:miter;stroke-miterlimit:10;stroke-dasharray:none;stroke-opacity:0.8"
                 id="path46" />
            </g>
          </g>
        </g>
      </g>
      <path
         d="m 7.91,10.395 h 22 v 7.703 h -22 z"
         style="fill:#595959;fill-opacity:1;fill-rule:nonzero;stroke:#595959;stroke-width:5;stroke-linecap:butt;stroke-linejoin:miter;stroke-miterlimit:10;stroke-dasharray:none;stroke-opacity:1"
         id="path54" />
      <path
         d="m 39.07,10.074 h 1.102 l 1.68,6.778 1.683,-6.778 h 1.223 l 1.683,6.778 1.68,-6.778 h 1.102 l -2.012,8.02 h -1.363 l -1.696,-6.965 -1.707,6.965 h -1.363 z"
         style="fill:#262626;fill-opacity:1;fill-rule:nonzero;stroke:none"
         id="path56" />
      <path
         d="m 50.387,12.078 h 0.988 v 6.016 h -0.988 z m 0,-2.344 h 0.988 v 1.254 h -0.988 z"
         style="fill:#262626;fill-opacity:1;fill-rule:nonzero;stroke:none"
         id="path58" />
      <path
         d="m 54.422,10.371 v 1.707 h 2.035 v 0.77 h -2.035 v 3.265 c 0,0.496 0.066,0.817 0.199,0.946 0.133,0.144 0.406,0.211 0.824,0.211 h 1.012 v 0.824 h -1.012 c -0.769,0 -1.297,-0.145 -1.582,-0.43 -0.289,-0.285 -0.429,-0.801 -0.429,-1.551 v -3.265 h -0.727 v -0.77 h 0.727 v -1.707 z"
         style="fill:#262626;fill-opacity:1;fill-rule:nonzero;stroke:none"
         id="path60" />
      <path
         d="m 62.762,14.465 v 3.629 h -0.989 v -3.598 c 0,-0.57 -0.121,-0.988 -0.343,-1.273 -0.219,-0.289 -0.551,-0.43 -0.989,-0.43 -0.539,0 -0.957,0.176 -1.265,0.516 -0.309,0.339 -0.461,0.804 -0.461,1.386 v 3.399 h -0.992 v -8.36 h 0.992 v 3.278 c 0.23,-0.352 0.504,-0.629 0.836,-0.805 0.316,-0.176 0.691,-0.273 1.109,-0.273 0.684,0 1.211,0.218 1.563,0.648 0.351,0.43 0.539,1.059 0.539,1.883 z"
         style="fill:#262626;fill-opacity:1;fill-rule:nonzero;stroke:none"
         id="path62" />
      <path
         d="m 67.559,10.074 h 1.101 l 1.68,6.778 1.683,-6.778 h 1.223 l 1.684,6.778 1.679,-6.778 h 1.102 l -2.012,8.02 h -1.363 l -1.695,-6.965 -1.707,6.965 H 69.57 Z"
         style="fill:#262626;fill-opacity:1;fill-rule:nonzero;stroke:none"
         id="path64" />
      <path
         d="m 81.242,11.141 -1.472,3.992 h 2.945 z m -0.617,-1.067 h 1.234 l 3.059,8.02 h -1.133 l -0.726,-2.059 h -3.621 l -0.727,2.059 H 77.57 Z"
         style="fill:#262626;fill-opacity:1;fill-rule:nonzero;stroke:none"
         id="path66" />
      <path
         d="m 85.961,10.074 h 1.09 v 4.875 c 0,0.856 0.152,1.485 0.461,1.86 0.308,0.371 0.812,0.558 1.519,0.558 0.692,0 1.199,-0.187 1.504,-0.558 0.309,-0.375 0.477,-1.004 0.477,-1.86 v -4.875 h 1.086 v 5.004 c 0,1.059 -0.262,1.84 -0.782,2.367 -0.515,0.528 -1.273,0.793 -2.285,0.793 -1.011,0 -1.785,-0.265 -2.301,-0.793 -0.515,-0.527 -0.769,-1.308 -0.769,-2.367 z"
         style="fill:#262626;fill-opacity:1;fill-rule:nonzero;stroke:none"
         id="path68" />
      <path
         d="m 94.133,10.074 h 1.617 l 2.047,5.457 2.055,-5.457 h 1.617 v 8.02 h -1.055 v -7.039 l -2.07,5.5 h -1.086 l -2.07,-5.5 v 7.039 h -1.055 z"
         style="fill:#262626;fill-opacity:1;fill-rule:nonzero;stroke:none"
         id="path70" />
      <path
         d="m 108.039,17.191 v 3.18 h -0.992 v -8.293 h 0.992 v 0.91 c 0.195,-0.351 0.461,-0.613 0.781,-0.789 0.317,-0.176 0.703,-0.265 1.141,-0.265 0.727,0 1.32,0.296 1.785,0.871 0.449,0.582 0.68,1.34 0.68,2.285 0,0.945 -0.231,1.719 -0.68,2.289 -0.465,0.57 -1.058,0.859 -1.785,0.859 -0.438,0 -0.824,-0.09 -1.141,-0.254 -0.32,-0.164 -0.586,-0.429 -0.781,-0.793 z m 3.363,-2.101 c 0,-0.727 -0.152,-1.285 -0.449,-1.703 -0.308,-0.418 -0.715,-0.629 -1.23,-0.629 -0.532,0 -0.938,0.211 -1.235,0.629 -0.308,0.418 -0.449,0.976 -0.449,1.703 0,0.726 0.141,1.301 0.449,1.719 0.297,0.418 0.703,0.613 1.235,0.613 0.515,0 0.922,-0.195 1.23,-0.613 0.297,-0.418 0.449,-0.993 0.449,-1.719 z"
         style="fill:#262626;fill-opacity:1;fill-rule:nonzero;stroke:none"
         id="path72" />
      <path
         d="m 117.551,13 c -0.11,-0.066 -0.231,-0.109 -0.363,-0.141 -0.129,-0.023 -0.274,-0.047 -0.426,-0.047 -0.563,0 -0.992,0.188 -1.289,0.551 -0.309,0.364 -0.45,0.879 -0.45,1.563 v 3.168 h -0.992 v -6.016 h 0.992 v 0.934 c 0.196,-0.364 0.473,-0.637 0.801,-0.813 0.332,-0.176 0.738,-0.265 1.223,-0.265 0.066,0 0.141,0.011 0.23,0.011 0.078,0.012 0.164,0.02 0.274,0.043 z"
         style="fill:#262626;fill-opacity:1;fill-rule:nonzero;stroke:none"
         id="path74" />
      <path
         d="m 118.484,15.719 v -3.641 h 0.993 v 3.606 c 0,0.574 0.109,0.992 0.328,1.277 0.222,0.285 0.55,0.43 1.004,0.43 0.527,0 0.957,-0.164 1.261,-0.508 0.309,-0.34 0.465,-0.801 0.465,-1.395 v -3.41 h 0.988 v 6.016 h -0.988 v -0.926 c -0.242,0.375 -0.531,0.641 -0.836,0.816 -0.32,0.164 -0.683,0.254 -1.101,0.254 -0.692,0 -1.223,-0.211 -1.575,-0.64 -0.363,-0.418 -0.539,-1.043 -0.539,-1.879 z"
         style="fill:#262626;fill-opacity:1;fill-rule:nonzero;stroke:none"
         id="path76" />
      <path
         d="m 130.566,14.465 v 3.629 h -0.988 v -3.598 c 0,-0.57 -0.121,-0.988 -0.344,-1.273 -0.218,-0.289 -0.55,-0.43 -0.988,-0.43 -0.539,0 -0.957,0.176 -1.266,0.516 -0.308,0.339 -0.46,0.804 -0.46,1.386 v 3.399 h -0.993 v -6.016 h 0.993 v 0.934 c 0.23,-0.352 0.503,-0.629 0.835,-0.805 0.317,-0.176 0.692,-0.273 1.11,-0.273 0.683,0 1.211,0.218 1.562,0.648 0.352,0.43 0.539,1.059 0.539,1.883 z"
         style="fill:#262626;fill-opacity:1;fill-rule:nonzero;stroke:none"
         id="path78" />
      <path
         d="m 132.535,12.078 h 0.988 v 6.016 h -0.988 z m 0,-2.344 h 0.988 v 1.254 h -0.988 z"
         style="fill:#262626;fill-opacity:1;fill-rule:nonzero;stroke:none"
         id="path80" />
      <path
         d="m 140.598,14.465 v 3.629 h -0.989 v -3.598 c 0,-0.57 -0.121,-0.988 -0.343,-1.273 -0.219,-0.289 -0.551,-0.43 -0.989,-0.43 -0.539,0 -0.957,0.176 -1.265,0.516 -0.309,0.339 -0.461,0.804 -0.461,1.386 v 3.399 h -0.992 v -6.016 h 0.992 v 0.934 c 0.23,-0.352 0.504,-0.629 0.836,-0.805 0.316,-0.176 0.691,-0.273 1.109,-0.273 0.684,0 1.211,0.218 1.563,0.648 0.351,0.43 0.539,1.059 0.539,1.883 z"
         style="fill:#262626;fill-opacity:1;fill-rule:nonzero;stroke:none"
         id="path82" />
      <path
         d="m 146.523,15.016 c 0,-0.707 -0.152,-1.266 -0.437,-1.664 -0.297,-0.395 -0.715,-0.594 -1.242,-0.594 -0.532,0 -0.949,0.199 -1.246,0.594 -0.297,0.398 -0.438,0.957 -0.438,1.664 0,0.714 0.141,1.261 0.438,1.66 0.297,0.394 0.714,0.594 1.246,0.594 0.527,0 0.945,-0.2 1.242,-0.594 0.285,-0.399 0.437,-0.946 0.437,-1.66 z m 0.993,2.332 c 0,1.011 -0.231,1.769 -0.684,2.273 -0.461,0.496 -1.152,0.75 -2.09,0.75 -0.351,0 -0.672,-0.035 -0.976,-0.078 -0.309,-0.055 -0.618,-0.133 -0.903,-0.242 v -0.957 c 0.285,0.156 0.571,0.265 0.856,0.344 0.289,0.074 0.574,0.121 0.871,0.121 0.637,0 1.121,-0.18 1.453,-0.508 0.316,-0.34 0.48,-0.848 0.48,-1.528 v -0.484 c -0.207,0.352 -0.472,0.613 -0.789,0.789 -0.32,0.176 -0.695,0.266 -1.132,0.266 -0.75,0 -1.344,-0.274 -1.793,-0.836 -0.454,-0.563 -0.672,-1.309 -0.672,-2.242 0,-0.926 0.218,-1.676 0.672,-2.235 0.449,-0.562 1.043,-0.847 1.793,-0.847 0.437,0 0.812,0.089 1.132,0.265 0.317,0.176 0.582,0.438 0.789,0.789 v -0.91 h 0.993 z"
         style="fill:#262626;fill-opacity:1;fill-rule:nonzero;stroke:none"
         id="path84" />
      <path
         d="m 156.887,12.254 v 0.934 c -0.285,-0.133 -0.571,-0.243 -0.867,-0.321 -0.309,-0.062 -0.618,-0.109 -0.934,-0.109 -0.496,0 -0.871,0.078 -1.113,0.23 -0.243,0.157 -0.364,0.375 -0.364,0.672 0,0.231 0.09,0.406 0.266,0.539 0.176,0.133 0.527,0.266 1.055,0.375 l 0.343,0.078 c 0.704,0.153 1.196,0.371 1.497,0.637 0.285,0.273 0.437,0.66 0.437,1.145 0,0.558 -0.219,1 -0.66,1.32 -0.438,0.328 -1.055,0.484 -1.824,0.484 -0.332,0 -0.661,-0.035 -1.012,-0.09 -0.352,-0.054 -0.715,-0.144 -1.102,-0.273 v -1.023 c 0.364,0.195 0.727,0.339 1.079,0.429 0.351,0.098 0.703,0.141 1.054,0.141 0.465,0 0.828,-0.074 1.078,-0.231 0.242,-0.152 0.375,-0.382 0.375,-0.683 0,-0.262 -0.097,-0.473 -0.273,-0.613 -0.176,-0.145 -0.574,-0.286 -1.188,-0.418 l -0.343,-0.079 c -0.614,-0.132 -1.067,-0.328 -1.329,-0.593 -0.277,-0.266 -0.41,-0.625 -0.41,-1.102 0,-0.558 0.2,-1 0.594,-1.308 0.399,-0.309 0.969,-0.461 1.719,-0.461 0.363,0 0.703,0.031 1.031,0.089 0.32,0.055 0.617,0.129 0.891,0.231 z"
         style="fill:#262626;fill-opacity:1;fill-rule:nonzero;stroke:none"
         id="path86" />
      <path
         d="m 159.758,10.371 v 1.707 h 2.035 v 0.77 h -2.035 v 3.265 c 0,0.496 0.066,0.817 0.199,0.946 0.133,0.144 0.406,0.211 0.824,0.211 h 1.012 v 0.824 h -1.012 c -0.769,0 -1.297,-0.145 -1.582,-0.43 -0.289,-0.285 -0.429,-0.801 -0.429,-1.551 v -3.265 h -0.727 v -0.77 h 0.727 v -1.707 z"
         style="fill:#262626;fill-opacity:1;fill-rule:nonzero;stroke:none"
         id="path88" />
      <path
         d="m 168.242,14.836 v 0.484 h -4.543 c 0.043,0.684 0.242,1.211 0.613,1.563 0.364,0.351 0.872,0.527 1.532,0.527 0.371,0 0.746,-0.043 1.097,-0.129 0.352,-0.09 0.715,-0.234 1.067,-0.429 v 0.933 c -0.352,0.156 -0.715,0.277 -1.086,0.34 -0.375,0.066 -0.762,0.113 -1.133,0.113 -0.969,0 -1.727,-0.277 -2.289,-0.828 -0.562,-0.547 -0.836,-1.308 -0.836,-2.265 0,-0.977 0.262,-1.758 0.793,-2.34 0.527,-0.575 1.254,-0.871 2.156,-0.871 0.813,0 1.449,0.265 1.922,0.781 0.465,0.527 0.707,1.23 0.707,2.121 z m -0.992,-0.285 c -0.012,-0.539 -0.164,-0.969 -0.449,-1.297 -0.297,-0.32 -0.696,-0.484 -1.18,-0.484 -0.547,0 -0.988,0.164 -1.32,0.472 -0.328,0.309 -0.528,0.75 -0.571,1.309 z"
         style="fill:#262626;fill-opacity:1;fill-rule:nonzero;stroke:none"
         id="path90" />
      <path
         d="m 170.816,17.191 v 3.18 h -0.992 v -8.293 h 0.992 v 0.91 c 0.196,-0.351 0.461,-0.613 0.782,-0.789 0.316,-0.176 0.703,-0.265 1.14,-0.265 0.727,0 1.321,0.296 1.785,0.871 0.45,0.582 0.68,1.34 0.68,2.285 0,0.945 -0.23,1.719 -0.68,2.289 -0.464,0.57 -1.058,0.859 -1.785,0.859 -0.437,0 -0.824,-0.09 -1.14,-0.254 -0.321,-0.164 -0.586,-0.429 -0.782,-0.793 z m 3.364,-2.101 c 0,-0.727 -0.153,-1.285 -0.45,-1.703 -0.308,-0.418 -0.714,-0.629 -1.23,-0.629 -0.531,0 -0.938,0.211 -1.234,0.629 -0.309,0.418 -0.45,0.976 -0.45,1.703 0,0.726 0.141,1.301 0.45,1.719 0.296,0.418 0.703,0.613 1.234,0.613 0.516,0 0.922,-0.195 1.23,-0.613 0.297,-0.418 0.45,-0.993 0.45,-1.719 z"
         style="fill:#262626;fill-opacity:1;fill-rule:nonzero;stroke:none"
         id="path92" />
      <path
         d="m 197.754,10.395 h 22 v 7.703 h -22 z"
         style="fill:#176d9c;fill-opacity:0.7;fill-rule:nonzero;stroke:none"
         id="path94" />
      <path
         d="m 197.754,10.395 h 22 v 7.703 h -22 z"
         style="fill:none;stroke:#ffffff;stroke-width:1;stroke-linecap:butt;stroke-linejoin:miter;stroke-miterlimit:10;stroke-dasharray:none;stroke-opacity:0.7"
         id="path96" />
      <path
         d="m 233.438,14.332 c 0.23,0.086 0.464,0.254 0.683,0.504 0.219,0.266 0.441,0.617 0.66,1.07 l 1.098,2.188 h -1.164 l -1.024,-2.059 c -0.265,-0.527 -0.527,-0.89 -0.769,-1.066 -0.254,-0.176 -0.594,-0.262 -1.024,-0.262 h -1.175 v 3.387 h -1.09 v -8.02 h 2.453 c 0.914,0 1.594,0.199 2.047,0.574 0.449,0.383 0.679,0.965 0.679,1.735 0,0.508 -0.121,0.937 -0.351,1.265 -0.242,0.332 -0.582,0.563 -1.023,0.684 z m -2.715,-3.367 v 2.851 h 1.363 c 0.516,0 0.914,-0.121 1.176,-0.363 0.265,-0.242 0.406,-0.594 0.406,-1.07 0,-0.461 -0.141,-0.813 -0.406,-1.055 -0.262,-0.242 -0.66,-0.363 -1.176,-0.363 z"
         style="fill:#262626;fill-opacity:1;fill-rule:nonzero;stroke:none"
         id="path98" />
      <path
         d="m 241.898,14.836 v 0.484 h -4.543 c 0.043,0.684 0.243,1.211 0.614,1.563 0.363,0.351 0.871,0.527 1.531,0.527 0.371,0 0.746,-0.043 1.098,-0.129 0.351,-0.09 0.714,-0.234 1.066,-0.429 v 0.933 c -0.352,0.156 -0.715,0.277 -1.086,0.34 -0.375,0.066 -0.762,0.113 -1.133,0.113 -0.968,0 -1.726,-0.277 -2.289,-0.828 -0.562,-0.547 -0.836,-1.308 -0.836,-2.265 0,-0.977 0.262,-1.758 0.793,-2.34 0.528,-0.575 1.254,-0.871 2.157,-0.871 0.812,0 1.449,0.265 1.921,0.781 0.465,0.527 0.707,1.23 0.707,2.121 z m -0.992,-0.285 c -0.011,-0.539 -0.164,-0.969 -0.449,-1.297 -0.297,-0.32 -0.695,-0.484 -1.18,-0.484 -0.547,0 -0.988,0.164 -1.32,0.472 -0.328,0.309 -0.527,0.75 -0.57,1.309 z"
         style="fill:#262626;fill-opacity:1;fill-rule:nonzero;stroke:none"
         id="path100" />
      <path
         d="m 247.352,12.254 v 0.934 c -0.286,-0.133 -0.571,-0.243 -0.868,-0.321 -0.308,-0.062 -0.617,-0.109 -0.933,-0.109 -0.496,0 -0.871,0.078 -1.113,0.23 -0.243,0.157 -0.364,0.375 -0.364,0.672 0,0.231 0.09,0.406 0.266,0.539 0.176,0.133 0.527,0.266 1.055,0.375 l 0.343,0.078 c 0.703,0.153 1.196,0.371 1.496,0.637 0.286,0.273 0.438,0.66 0.438,1.145 0,0.558 -0.219,1 -0.66,1.32 -0.438,0.328 -1.055,0.484 -1.824,0.484 -0.333,0 -0.661,-0.035 -1.012,-0.09 -0.352,-0.054 -0.715,-0.144 -1.102,-0.273 v -1.023 c 0.364,0.195 0.727,0.339 1.078,0.429 0.352,0.098 0.703,0.141 1.055,0.141 0.465,0 0.828,-0.074 1.078,-0.231 0.242,-0.152 0.375,-0.382 0.375,-0.683 0,-0.262 -0.098,-0.473 -0.273,-0.613 -0.176,-0.145 -0.575,-0.286 -1.188,-0.418 l -0.344,-0.079 c -0.613,-0.132 -1.066,-0.328 -1.328,-0.593 -0.277,-0.266 -0.41,-0.625 -0.41,-1.102 0,-0.558 0.199,-1 0.594,-1.308 0.398,-0.309 0.969,-0.461 1.719,-0.461 0.363,0 0.703,0.031 1.031,0.089 0.32,0.055 0.617,0.129 0.891,0.231 z"
         style="fill:#262626;fill-opacity:1;fill-rule:nonzero;stroke:none"
         id="path102" />
      <path
         d="m 254.25,14.465 v 3.629 h -0.988 v -3.598 c 0,-0.57 -0.121,-0.988 -0.344,-1.273 -0.219,-0.289 -0.551,-0.43 -0.988,-0.43 -0.539,0 -0.957,0.176 -1.266,0.516 -0.309,0.339 -0.461,0.804 -0.461,1.386 v 3.399 h -0.992 v -6.016 h 0.992 v 0.934 c 0.231,-0.352 0.504,-0.629 0.836,-0.805 0.316,-0.176 0.691,-0.273 1.109,-0.273 0.684,0 1.211,0.218 1.563,0.648 0.351,0.43 0.539,1.059 0.539,1.883 z"
         style="fill:#262626;fill-opacity:1;fill-rule:nonzero;stroke:none"
         id="path104" />
      <path
         d="m 261.367,14.836 v 0.484 h -4.543 c 0.043,0.684 0.242,1.211 0.614,1.563 0.363,0.351 0.871,0.527 1.531,0.527 0.371,0 0.746,-0.043 1.097,-0.129 0.352,-0.09 0.715,-0.234 1.067,-0.429 v 0.933 c -0.352,0.156 -0.715,0.277 -1.086,0.34 -0.375,0.066 -0.762,0.113 -1.133,0.113 -0.969,0 -1.726,-0.277 -2.289,-0.828 -0.563,-0.547 -0.836,-1.308 -0.836,-2.265 0,-0.977 0.262,-1.758 0.793,-2.34 0.527,-0.575 1.254,-0.871 2.156,-0.871 0.813,0 1.45,0.265 1.922,0.781 0.465,0.527 0.707,1.23 0.707,2.121 z m -0.992,-0.285 c -0.012,-0.539 -0.164,-0.969 -0.449,-1.297 -0.297,-0.32 -0.696,-0.484 -1.18,-0.484 -0.547,0 -0.988,0.164 -1.32,0.472 -0.328,0.309 -0.528,0.75 -0.571,1.309 z"
         style="fill:#262626;fill-opacity:1;fill-rule:nonzero;stroke:none"
         id="path106" />
      <path
         d="m 263.961,10.371 v 1.707 h 2.035 v 0.77 h -2.035 v 3.265 c 0,0.496 0.066,0.817 0.199,0.946 0.133,0.144 0.406,0.211 0.824,0.211 h 1.012 v 0.824 h -1.012 c -0.769,0 -1.296,-0.145 -1.582,-0.43 -0.289,-0.285 -0.429,-0.801 -0.429,-1.551 v -3.265 h -0.727 v -0.77 h 0.727 v -1.707 z"
         style="fill:#262626;fill-opacity:1;fill-rule:nonzero;stroke:none"
         id="path108" />
      <path
         d="m 266.801,14.641 h 2.895 v 0.879 h -2.895 z"
         style="fill:#262626;fill-opacity:1;fill-rule:nonzero;stroke:none"
         id="path110" />
      <path
         d="m 271.598,17.18 h 1.773 v -6.114 l -1.926,0.383 v -0.988 l 1.914,-0.387 h 1.09 v 7.106 h 1.77 v 0.914 h -4.621 z"
         style="fill:#262626;fill-opacity:1;fill-rule:nonzero;stroke:none"
         id="path112" />
      <path
         d="m 280.727,14.289 c -0.516,0 -0.922,0.141 -1.219,0.418 -0.297,0.273 -0.442,0.648 -0.442,1.133 0,0.484 0.145,0.867 0.442,1.144 0.297,0.274 0.703,0.407 1.219,0.407 0.507,0 0.914,-0.133 1.211,-0.418 0.296,-0.278 0.453,-0.649 0.453,-1.133 0,-0.485 -0.157,-0.86 -0.442,-1.133 -0.297,-0.277 -0.703,-0.418 -1.222,-0.418 z m -1.086,-0.465 c -0.465,-0.109 -0.825,-0.328 -1.09,-0.648 -0.266,-0.317 -0.387,-0.703 -0.387,-1.164 0,-0.641 0.223,-1.145 0.684,-1.52 0.449,-0.375 1.078,-0.558 1.879,-0.558 0.793,0 1.421,0.183 1.882,0.558 0.45,0.375 0.684,0.879 0.684,1.52 0,0.461 -0.133,0.847 -0.398,1.164 -0.262,0.32 -0.614,0.539 -1.079,0.648 0.52,0.121 0.926,0.364 1.223,0.715 0.285,0.356 0.438,0.793 0.438,1.301 0,0.781 -0.239,1.375 -0.715,1.781 -0.481,0.418 -1.164,0.617 -2.043,0.617 -0.883,0 -1.563,-0.199 -2.035,-0.617 -0.473,-0.406 -0.707,-1 -0.707,-1.781 0,-0.508 0.144,-0.945 0.441,-1.301 0.285,-0.351 0.695,-0.594 1.223,-0.715 z m -0.399,-1.715 c 0,0.418 0.121,0.75 0.387,0.981 0.262,0.23 0.625,0.34 1.098,0.34 0.464,0 0.828,-0.11 1.089,-0.34 0.266,-0.231 0.399,-0.563 0.399,-0.981 0,-0.418 -0.133,-0.738 -0.399,-0.968 -0.261,-0.231 -0.625,-0.352 -1.089,-0.352 -0.473,0 -0.836,0.121 -1.098,0.352 -0.266,0.23 -0.387,0.55 -0.387,0.968 z"
         style="fill:#262626;fill-opacity:1;fill-rule:nonzero;stroke:none"
         id="path114" />
      <path
         d="m 306.211,10.395 h 22 v 7.703 h -22 z"
         style="fill:#c38820;fill-opacity:0.7;fill-rule:nonzero;stroke:none"
         id="path116" />
      <path
         d="m 306.211,10.395 h 22 v 7.703 h -22 z"
         style="fill:none;stroke:#ffffff;stroke-width:1;stroke-linecap:butt;stroke-linejoin:miter;stroke-miterlimit:10;stroke-dasharray:none;stroke-opacity:0.7"
         id="path118" />
      <path
         d="m 341.895,14.332 c 0.23,0.086 0.464,0.254 0.683,0.504 0.219,0.266 0.442,0.617 0.66,1.07 l 1.098,2.188 h -1.164 l -1.024,-2.059 c -0.265,-0.527 -0.527,-0.89 -0.769,-1.066 -0.254,-0.176 -0.594,-0.262 -1.024,-0.262 h -1.175 v 3.387 h -1.09 v -8.02 h 2.453 c 0.914,0 1.594,0.199 2.047,0.574 0.449,0.383 0.68,0.965 0.68,1.735 0,0.508 -0.122,0.937 -0.352,1.265 -0.242,0.332 -0.582,0.563 -1.023,0.684 z m -2.715,-3.367 v 2.851 h 1.363 c 0.516,0 0.914,-0.121 1.176,-0.363 0.265,-0.242 0.406,-0.594 0.406,-1.07 0,-0.461 -0.141,-0.813 -0.406,-1.055 -0.262,-0.242 -0.66,-0.363 -1.176,-0.363 z"
         style="fill:#262626;fill-opacity:1;fill-rule:nonzero;stroke:none"
         id="path120" />
      <path
         d="m 350.355,14.836 v 0.484 h -4.543 c 0.043,0.684 0.243,1.211 0.614,1.563 0.363,0.351 0.871,0.527 1.531,0.527 0.371,0 0.746,-0.043 1.098,-0.129 0.351,-0.09 0.715,-0.234 1.066,-0.429 v 0.933 c -0.351,0.156 -0.715,0.277 -1.086,0.34 -0.375,0.066 -0.762,0.113 -1.133,0.113 -0.968,0 -1.726,-0.277 -2.289,-0.828 -0.562,-0.547 -0.836,-1.308 -0.836,-2.265 0,-0.977 0.262,-1.758 0.793,-2.34 0.528,-0.575 1.254,-0.871 2.157,-0.871 0.812,0 1.449,0.265 1.921,0.781 0.465,0.527 0.707,1.23 0.707,2.121 z m -0.992,-0.285 c -0.011,-0.539 -0.164,-0.969 -0.449,-1.297 -0.297,-0.32 -0.695,-0.484 -1.18,-0.484 -0.546,0 -0.988,0.164 -1.32,0.472 -0.328,0.309 -0.527,0.75 -0.57,1.309 z"
         style="fill:#262626;fill-opacity:1;fill-rule:nonzero;stroke:none"
         id="path122" />
      <path
         d="m 355.809,12.254 v 0.934 c -0.286,-0.133 -0.571,-0.243 -0.868,-0.321 -0.308,-0.062 -0.617,-0.109 -0.933,-0.109 -0.496,0 -0.871,0.078 -1.113,0.23 -0.243,0.157 -0.364,0.375 -0.364,0.672 0,0.231 0.09,0.406 0.266,0.539 0.176,0.133 0.527,0.266 1.055,0.375 l 0.343,0.078 c 0.703,0.153 1.196,0.371 1.496,0.637 0.286,0.273 0.438,0.66 0.438,1.145 0,0.558 -0.219,1 -0.66,1.32 -0.438,0.328 -1.055,0.484 -1.824,0.484 -0.333,0 -0.661,-0.035 -1.012,-0.09 -0.352,-0.054 -0.715,-0.144 -1.102,-0.273 v -1.023 c 0.364,0.195 0.727,0.339 1.078,0.429 0.352,0.098 0.703,0.141 1.055,0.141 0.465,0 0.828,-0.074 1.078,-0.231 0.242,-0.152 0.375,-0.382 0.375,-0.683 0,-0.262 -0.097,-0.473 -0.273,-0.613 -0.176,-0.145 -0.574,-0.286 -1.188,-0.418 l -0.344,-0.079 c -0.613,-0.132 -1.066,-0.328 -1.328,-0.593 -0.277,-0.266 -0.41,-0.625 -0.41,-1.102 0,-0.558 0.199,-1 0.594,-1.308 0.398,-0.309 0.969,-0.461 1.719,-0.461 0.363,0 0.703,0.031 1.031,0.089 0.32,0.055 0.617,0.129 0.891,0.231 z"
         style="fill:#262626;fill-opacity:1;fill-rule:nonzero;stroke:none"
         id="path124" />
      <path
         d="m 362.707,14.465 v 3.629 h -0.988 v -3.598 c 0,-0.57 -0.121,-0.988 -0.344,-1.273 -0.219,-0.289 -0.551,-0.43 -0.988,-0.43 -0.539,0 -0.957,0.176 -1.266,0.516 -0.309,0.339 -0.461,0.804 -0.461,1.386 v 3.399 h -0.992 v -6.016 h 0.992 v 0.934 c 0.231,-0.352 0.504,-0.629 0.836,-0.805 0.316,-0.176 0.692,-0.273 1.109,-0.273 0.684,0 1.211,0.218 1.563,0.648 0.352,0.43 0.539,1.059 0.539,1.883 z"
         style="fill:#262626;fill-opacity:1;fill-rule:nonzero;stroke:none"
         id="path126" />
      <path
         d="m 369.824,14.836 v 0.484 h -4.543 c 0.043,0.684 0.242,1.211 0.614,1.563 0.363,0.351 0.871,0.527 1.531,0.527 0.371,0 0.746,-0.043 1.097,-0.129 0.352,-0.09 0.715,-0.234 1.067,-0.429 v 0.933 c -0.352,0.156 -0.715,0.277 -1.086,0.34 -0.375,0.066 -0.762,0.113 -1.133,0.113 -0.969,0 -1.726,-0.277 -2.289,-0.828 -0.562,-0.547 -0.836,-1.308 -0.836,-2.265 0,-0.977 0.262,-1.758 0.793,-2.34 0.527,-0.575 1.254,-0.871 2.156,-0.871 0.813,0 1.45,0.265 1.922,0.781 0.465,0.527 0.707,1.23 0.707,2.121 z m -0.992,-0.285 c -0.012,-0.539 -0.164,-0.969 -0.449,-1.297 -0.297,-0.32 -0.695,-0.484 -1.18,-0.484 -0.547,0 -0.988,0.164 -1.32,0.472 -0.328,0.309 -0.528,0.75 -0.571,1.309 z"
         style="fill:#262626;fill-opacity:1;fill-rule:nonzero;stroke:none"
         id="path128" />
      <path
         d="m 372.418,10.371 v 1.707 h 2.035 v 0.77 h -2.035 v 3.265 c 0,0.496 0.066,0.817 0.199,0.946 0.133,0.144 0.406,0.211 0.824,0.211 h 1.012 v 0.824 h -1.012 c -0.769,0 -1.296,-0.145 -1.582,-0.43 -0.289,-0.285 -0.429,-0.801 -0.429,-1.551 v -3.265 h -0.727 v -0.77 h 0.727 v -1.707 z"
         style="fill:#262626;fill-opacity:1;fill-rule:nonzero;stroke:none"
         id="path130" />
      <path
         d="m 375.258,14.641 h 2.895 v 0.879 h -2.895 z"
         style="fill:#262626;fill-opacity:1;fill-rule:nonzero;stroke:none"
         id="path132" />
      <path
         d="m 383.152,13.77 c 0.52,0.109 0.926,0.343 1.211,0.695 0.285,0.351 0.442,0.789 0.442,1.297 0,0.793 -0.278,1.406 -0.817,1.836 -0.547,0.429 -1.32,0.64 -2.32,0.64 -0.34,0 -0.691,-0.035 -1.043,-0.101 -0.352,-0.055 -0.727,-0.153 -1.102,-0.285 v -1.043 c 0.297,0.175 0.629,0.304 0.989,0.394 0.355,0.086 0.726,0.133 1.125,0.133 0.679,0 1.199,-0.133 1.551,-0.398 0.351,-0.262 0.539,-0.661 0.539,-1.176 0,-0.461 -0.168,-0.836 -0.497,-1.102 -0.328,-0.262 -0.792,-0.406 -1.386,-0.406 h -0.934 v -0.891 h 0.977 c 0.531,0 0.937,-0.097 1.222,-0.32 0.286,-0.207 0.43,-0.516 0.43,-0.922 0,-0.406 -0.156,-0.726 -0.441,-0.945 -0.297,-0.223 -0.715,-0.332 -1.254,-0.332 -0.297,0 -0.617,0.035 -0.957,0.101 -0.34,0.063 -0.715,0.164 -1.121,0.297 v -0.969 c 0.406,-0.109 0.793,-0.199 1.156,-0.253 0.351,-0.055 0.691,-0.086 1.023,-0.086 0.813,0 1.461,0.183 1.946,0.558 0.484,0.375 0.726,0.879 0.726,1.52 0,0.437 -0.133,0.812 -0.387,1.121 -0.253,0.308 -0.613,0.527 -1.078,0.637 z"
         style="fill:#262626;fill-opacity:1;fill-rule:nonzero;stroke:none"
         id="path134" />
      <path
         d="m 389.84,11.02 -2.738,4.281 h 2.738 z m -0.285,-0.946 h 1.363 v 5.227 h 1.144 v 0.902 h -1.144 v 1.891 h -1.078 v -1.891 h -3.617 v -1.047 z"
         style="fill:#262626;fill-opacity:1;fill-rule:nonzero;stroke:none"
         id="path136" />
      <path
         d="m 414.668,10.395 h 22 v 7.703 h -22 z"
         style="fill:#158b6a;fill-opacity:0.7;fill-rule:nonzero;stroke:none"
         id="path138" />
      <path
         d="m 414.668,10.395 h 22 v 7.703 h -22 z"
         style="fill:none;stroke:#ffffff;stroke-width:1;stroke-linecap:butt;stroke-linejoin:miter;stroke-miterlimit:10;stroke-dasharray:none;stroke-opacity:0.7"
         id="path140" />
      <path
         d="m 448.609,18.094 -3.054,-8.02 h 1.133 l 2.539,6.754 2.543,-6.754 h 1.132 l -3.058,8.02 z"
         style="fill:#262626;fill-opacity:1;fill-rule:nonzero;stroke:none"
         id="path142" />
      <path
         d="m 459.539,16.949 v -2.156 h -1.773 v -0.891 h 2.847 v 3.446 c -0.418,0.304 -0.879,0.527 -1.383,0.668 -0.507,0.144 -1.046,0.222 -1.617,0.222 -1.254,0 -2.246,-0.363 -2.949,-1.09 -0.703,-0.726 -1.055,-1.75 -1.055,-3.058 0,-1.297 0.352,-2.32 1.055,-3.059 0.703,-0.726 1.695,-1.097 2.949,-1.097 0.516,0 1.012,0.062 1.485,0.195 0.472,0.133 0.914,0.32 1.308,0.562 v 1.157 c -0.406,-0.332 -0.836,-0.586 -1.285,-0.762 -0.453,-0.176 -0.926,-0.262 -1.422,-0.262 -0.988,0 -1.726,0.274 -2.211,0.824 -0.492,0.551 -0.734,1.364 -0.734,2.442 0,1.09 0.242,1.902 0.734,2.453 0.485,0.551 1.223,0.812 2.211,0.812 0.375,0 0.715,-0.031 1.024,-0.097 0.308,-0.067 0.574,-0.164 0.816,-0.309 z"
         style="fill:#262626;fill-opacity:1;fill-rule:nonzero;stroke:none"
         id="path144" />
      <path
         d="m 468.062,16.949 v -2.156 h -1.773 v -0.891 h 2.848 v 3.446 c -0.418,0.304 -0.879,0.527 -1.383,0.668 -0.508,0.144 -1.047,0.222 -1.617,0.222 -1.254,0 -2.246,-0.363 -2.949,-1.09 -0.704,-0.726 -1.055,-1.75 -1.055,-3.058 0,-1.297 0.351,-2.32 1.055,-3.059 0.703,-0.726 1.695,-1.097 2.949,-1.097 0.515,0 1.011,0.062 1.484,0.195 0.473,0.133 0.914,0.32 1.309,0.562 v 1.157 c -0.407,-0.332 -0.836,-0.586 -1.285,-0.762 -0.454,-0.176 -0.926,-0.262 -1.422,-0.262 -0.989,0 -1.727,0.274 -2.211,0.824 -0.492,0.551 -0.735,1.364 -0.735,2.442 0,1.09 0.243,1.902 0.735,2.453 0.484,0.551 1.222,0.812 2.211,0.812 0.375,0 0.715,-0.031 1.023,-0.097 0.309,-0.067 0.574,-0.164 0.816,-0.309 z"
         style="fill:#262626;fill-opacity:1;fill-rule:nonzero;stroke:none"
         id="path146" />
      <path
         d="m 470.578,14.641 h 2.895 v 0.879 h -2.895 z"
         style="fill:#262626;fill-opacity:1;fill-rule:nonzero;stroke:none"
         id="path148" />
      <path
         d="m 475.375,17.18 h 1.773 v -6.114 l -1.925,0.383 v -0.988 l 1.914,-0.387 h 1.09 v 7.106 h 1.769 v 0.914 h -4.621 z"
         style="fill:#262626;fill-opacity:1;fill-rule:nonzero;stroke:none"
         id="path150" />
      <path
         d="m 484.637,13.648 c -0.485,0 -0.867,0.176 -1.153,0.508 -0.289,0.328 -0.429,0.793 -0.429,1.364 0,0.582 0.14,1.046 0.429,1.375 0.286,0.332 0.668,0.496 1.153,0.496 0.484,0 0.871,-0.164 1.156,-0.496 0.285,-0.329 0.43,-0.793 0.43,-1.375 0,-0.571 -0.145,-1.036 -0.43,-1.364 -0.285,-0.332 -0.672,-0.508 -1.156,-0.508 z m 2.156,-3.398 v 0.992 c -0.273,-0.133 -0.551,-0.234 -0.824,-0.297 -0.285,-0.066 -0.563,-0.101 -0.824,-0.101 -0.727,0 -1.278,0.242 -1.653,0.726 -0.371,0.485 -0.594,1.223 -0.637,2.188 0.211,-0.305 0.473,-0.547 0.793,-0.715 0.321,-0.164 0.672,-0.25 1.055,-0.25 0.805,0 1.442,0.25 1.902,0.734 0.465,0.485 0.707,1.157 0.707,1.993 0,0.824 -0.253,1.484 -0.738,1.98 -0.484,0.496 -1.133,0.738 -1.937,0.738 -0.922,0 -1.637,-0.355 -2.121,-1.058 -0.496,-0.703 -0.739,-1.739 -0.739,-3.09 0,-1.266 0.297,-2.278 0.903,-3.024 0.593,-0.75 1.406,-1.132 2.422,-1.132 0.261,0 0.539,0.031 0.824,0.074 0.273,0.054 0.558,0.133 0.867,0.242 z"
         style="fill:#262626;fill-opacity:1;fill-rule:nonzero;stroke:none"
         id="path152" />
    </g>
  </g>
</svg>
