<?xml version="1.0" encoding="UTF-8" standalone="no"?>
<!-- Created with Inkscape (http://www.inkscape.org/) -->

<svg
   version="1.1"
   id="svg12882"
   width="1611.272"
   height="1426.7216"
   viewBox="0 0 1611.272 1426.7216"
   sodipodi:docname="spammer_dog.pdf"
   xmlns:inkscape="http://www.inkscape.org/namespaces/inkscape"
   xmlns:sodipodi="http://sodipodi.sourceforge.net/DTD/sodipodi-0.dtd"
   xmlns="http://www.w3.org/2000/svg"
   xmlns:svg="http://www.w3.org/2000/svg">
  <defs
     id="defs12886" />
  <sodipodi:namedview
     id="namedview12884"
     pagecolor="#ffffff"
     bordercolor="#111111"
     borderopacity="1"
     inkscape:showpageshadow="0"
     inkscape:pageopacity="0"
     inkscape:pagecheckerboard="1"
     inkscape:deskcolor="#d1d1d1" />
  <g
     id="g12888"
     inkscape:groupmode="layer"
     inkscape:label="spammer_dog14"
     transform="matrix(1.3333333,0,0,1.3333333,0,4.1001373e-5)">
    <g
       id="g12890">
      <g
         id="g12892">
        <path
           d="m 264.57,90.242 h 234.555 c 0.184,0 0.336,0.149 0.336,0.336 v 234.551 c 0,0.187 -0.152,0.34 -0.336,0.34 H 264.57 c -0.183,0 -0.336,-0.153 -0.336,-0.34 V 90.578 c 0,-0.187 0.153,-0.336 0.336,-0.336 z"
           style="fill:#96d892;fill-opacity:1;fill-rule:evenodd;stroke:#000000;stroke-width:7.36662;stroke-linecap:round;stroke-linejoin:round;stroke-miterlimit:4;stroke-dasharray:none;stroke-opacity:1"
           id="path12894" />
      </g>
      <g
         id="g12896">
        <path
           d="m 499.676,90.242 h 234.551 c 0.187,0 0.335,0.149 0.335,0.336 v 234.551 c 0,0.187 -0.148,0.34 -0.335,0.34 H 499.676 c -0.188,0 -0.336,-0.153 -0.336,-0.34 V 90.578 c 0,-0.187 0.148,-0.336 0.336,-0.336 z"
           style="fill:#f28383;fill-opacity:1;fill-rule:evenodd;stroke:#000000;stroke-width:7.36662;stroke-linecap:round;stroke-linejoin:round;stroke-miterlimit:4;stroke-dasharray:none;stroke-opacity:1"
           id="path12898" />
      </g>
      <g
         id="g12900">
        <path
           d="m 734.777,90.242 h 234.555 c 0.184,0 0.336,0.149 0.336,0.336 v 234.551 c 0,0.187 -0.152,0.34 -0.336,0.34 H 734.777 c -0.183,0 -0.336,-0.153 -0.336,-0.34 V 90.578 c 0,-0.187 0.153,-0.336 0.336,-0.336 z"
           style="fill:#f28383;fill-opacity:1;fill-rule:evenodd;stroke:#000000;stroke-width:7.36662;stroke-linecap:round;stroke-linejoin:round;stroke-miterlimit:4;stroke-dasharray:none;stroke-opacity:1"
           id="path12902" />
      </g>
      <g
         id="g12904">
        <path
           d="m 969.883,90.242 h 234.551 c 0.187,0 0.336,0.149 0.336,0.336 v 234.551 c 0,0.187 -0.149,0.34 -0.336,0.34 H 969.883 c -0.188,0 -0.336,-0.153 -0.336,-0.34 V 90.578 c 0,-0.187 0.148,-0.336 0.336,-0.336 z"
           style="fill:#f28383;fill-opacity:1;fill-rule:evenodd;stroke:#000000;stroke-width:7.36662;stroke-linecap:round;stroke-linejoin:round;stroke-miterlimit:4;stroke-dasharray:none;stroke-opacity:1"
           id="path12906" />
      </g>
      <path
         d="m 364.719,208.484 c 0,-7.156 -0.422,-14.316 -3.512,-20.914 -4.07,-8.703 -11.512,-10.109 -15.16,-10.109 -5.477,0 -11.934,2.387 -15.723,10.672 -2.808,6.176 -3.23,13.195 -3.23,20.351 0,6.739 0.281,14.743 4.074,21.621 3.789,7.161 10.387,8.985 14.738,8.985 4.774,0 11.653,-1.824 15.582,-10.391 2.809,-6.176 3.231,-13.195 3.231,-20.215 z m -7.301,-1.121 c 0,6.739 0,12.774 -0.984,18.532 -1.403,8.562 -6.457,11.23 -10.528,11.23 -3.508,0 -8.844,-2.246 -10.386,-10.813 -0.985,-5.332 -0.985,-13.613 -0.985,-18.949 0,-5.754 0,-11.652 0.703,-16.425 1.684,-10.668 8.422,-11.508 10.668,-11.508 2.949,0 8.844,1.683 10.528,10.527 0.984,5.055 0.984,11.793 0.984,17.406 z"
         style="fill:#000000;fill-opacity:1;fill-rule:nonzero;stroke:none"
         id="path12908" />
      <path
         d="m 385.465,232.352 c 0,-2.528 -2.11,-4.774 -4.633,-4.774 -2.668,0 -4.773,2.246 -4.773,4.774 0,2.668 2.105,4.773 4.773,4.773 2.523,0 4.633,-2.105 4.633,-4.773 z"
         style="fill:#000000;fill-opacity:1;fill-rule:nonzero;stroke:none"
         id="path12910" />
      <path
         d="M 436.602,179.43 H 414.84 c -10.809,0 -11.09,-1.125 -11.367,-2.809 h -2.246 l -2.95,18.391 h 2.246 c 0.282,-1.407 0.981,-7.02 2.247,-8.145 0.562,-0.562 7.578,-0.562 8.703,-0.562 h 18.531 l -9.969,14.179 c -8.14,12.075 -11.09,24.567 -11.09,33.692 0,0.844 0,4.914 4.211,4.914 4.071,0 4.071,-4.07 4.071,-4.914 v -4.633 c 0,-4.914 0.281,-9.828 0.984,-14.598 0.422,-2.105 1.543,-9.828 5.613,-15.304 l 12.074,-17.125 c 0.704,-0.981 0.704,-1.121 0.704,-3.086 z"
         style="fill:#000000;fill-opacity:1;fill-rule:nonzero;stroke:none"
         id="path12912" />
      <path
         d="m 601.434,208.066 c 0,-7.16 -0.418,-14.32 -3.508,-20.918 -4.071,-8.703 -11.512,-10.105 -15.16,-10.105 -5.477,0 -11.934,2.383 -15.723,10.668 -2.809,6.176 -3.231,13.195 -3.231,20.355 0,6.739 0.282,14.739 4.071,21.618 3.793,7.16 10.39,8.984 14.742,8.984 4.773,0 11.652,-1.824 15.582,-10.387 2.809,-6.179 3.227,-13.199 3.227,-20.215 z m -7.297,-1.125 c 0,6.739 0,12.774 -0.985,18.532 -1.402,8.562 -6.457,11.23 -10.527,11.23 -3.512,0 -8.844,-2.246 -10.387,-10.808 -0.984,-5.336 -0.984,-13.618 -0.984,-18.954 0,-5.753 0,-11.652 0.703,-16.425 1.684,-10.668 8.422,-11.508 10.668,-11.508 2.949,0 8.844,1.683 10.527,10.527 0.985,5.055 0.985,11.793 0.985,17.406 z"
         style="fill:#000000;fill-opacity:1;fill-rule:nonzero;stroke:none"
         id="path12914" />
      <path
         d="m 622.18,231.93 c 0,-2.528 -2.106,-4.774 -4.633,-4.774 -2.664,0 -4.77,2.246 -4.77,4.774 0,2.668 2.106,4.773 4.77,4.773 2.527,0 4.633,-2.105 4.633,-4.773 z"
         style="fill:#000000;fill-opacity:1;fill-rule:nonzero;stroke:none"
         id="path12916" />
      <path
         d="m 670.09,221.121 h -2.106 c -0.562,2.668 -1.125,6.598 -2.105,8 -0.563,0.703 -6.457,0.703 -8.422,0.703 h -16.145 l 9.547,-9.265 c 13.895,-12.352 19.231,-17.125 19.231,-26.11 0,-10.25 -8,-17.406 -18.953,-17.406 -10.106,0 -16.703,8.281 -16.703,16.281 0,4.914 4.492,4.914 4.773,4.914 1.543,0 4.633,-0.984 4.633,-4.773 0,-2.246 -1.688,-4.633 -4.774,-4.633 -0.703,0 -0.843,0 -1.125,0.141 1.965,-5.895 6.879,-9.125 12.075,-9.125 8.14,0 11.933,7.3 11.933,14.601 0,7.16 -4.351,14.176 -9.406,19.793 l -17.129,19.09 c -0.98,0.984 -0.98,1.266 -0.98,3.371 h 33.269 z"
         style="fill:#000000;fill-opacity:1;fill-rule:nonzero;stroke:none"
         id="path12918" />
      <path
         d="m 1071.152,208.066 c 0,-7.16 -0.422,-14.32 -3.511,-20.918 -4.071,-8.703 -11.512,-10.105 -15.161,-10.105 -5.476,0 -11.933,2.387 -15.722,10.668 -2.809,6.176 -3.231,13.195 -3.231,20.355 0,6.739 0.282,14.739 4.075,21.618 3.789,7.16 10.386,8.984 14.738,8.984 4.773,0 11.652,-1.824 15.582,-10.387 2.808,-6.179 3.23,-13.195 3.23,-20.215 z m -7.3,-1.125 c 0,6.739 0,12.774 -0.985,18.532 -1.402,8.562 -6.457,11.23 -10.527,11.23 -3.508,0 -8.844,-2.246 -10.387,-10.808 -0.984,-5.336 -0.984,-13.618 -0.984,-18.954 0,-5.753 0,-11.652 0.703,-16.421 1.683,-10.672 8.422,-11.512 10.668,-11.512 2.949,0 8.844,1.683 10.527,10.527 0.985,5.055 0.985,11.793 0.985,17.406 z"
         style="fill:#000000;fill-opacity:1;fill-rule:nonzero;stroke:none"
         id="path12920" />
      <path
         d="m 1091.895,231.93 c 0,-2.528 -2.106,-4.774 -4.629,-4.774 -2.668,0 -4.774,2.246 -4.774,4.774 0,2.668 2.106,4.773 4.774,4.773 2.523,0 4.629,-2.105 4.629,-4.773 z"
         style="fill:#000000;fill-opacity:1;fill-rule:nonzero;stroke:none"
         id="path12922" />
      <path
         d="m 1140.789,208.066 c 0,-7.16 -0.422,-14.32 -3.512,-20.918 -4.07,-8.703 -11.511,-10.105 -15.16,-10.105 -5.476,0 -11.933,2.387 -15.722,10.668 -2.809,6.176 -3.227,13.195 -3.227,20.355 0,6.739 0.277,14.739 4.07,21.618 3.789,7.16 10.387,8.984 14.739,8.984 4.773,0 11.652,-1.824 15.582,-10.387 2.808,-6.179 3.23,-13.195 3.23,-20.215 z m -7.301,-1.125 c 0,6.739 0,12.774 -0.984,18.532 -1.402,8.562 -6.457,11.23 -10.527,11.23 -3.508,0 -8.844,-2.246 -10.387,-10.808 -0.985,-5.336 -0.985,-13.618 -0.985,-18.954 0,-5.753 0,-11.652 0.704,-16.421 1.683,-10.672 8.421,-11.512 10.668,-11.512 2.949,0 8.843,1.683 10.527,10.527 0.984,5.055 0.984,11.793 0.984,17.406 z"
         style="fill:#000000;fill-opacity:1;fill-rule:nonzero;stroke:none"
         id="path12924" />
      <path
         d="m 837.871,208.066 c 0,-7.156 -0.422,-14.316 -3.508,-20.914 -4.07,-8.703 -11.511,-10.109 -15.16,-10.109 -5.476,0 -11.933,2.387 -15.723,10.672 -2.808,6.176 -3.23,13.195 -3.23,20.351 0,6.739 0.281,14.743 4.07,21.622 3.793,7.16 10.391,8.984 14.742,8.984 4.774,0 11.649,-1.824 15.583,-10.391 2.804,-6.176 3.226,-13.195 3.226,-20.215 z m -7.297,-1.121 c 0,6.739 0,12.774 -0.984,18.532 -1.402,8.562 -6.457,11.23 -10.528,11.23 -3.511,0 -8.843,-2.246 -10.39,-10.812 -0.981,-5.333 -0.981,-13.614 -0.981,-18.95 0,-5.757 0,-11.652 0.7,-16.425 1.687,-10.668 8.425,-11.512 10.671,-11.512 2.946,0 8.844,1.687 10.528,10.531 0.984,5.051 0.984,11.789 0.984,17.406 z"
         style="fill:#000000;fill-opacity:1;fill-rule:nonzero;stroke:none"
         id="path12926" />
      <path
         d="m 858.617,231.934 c 0,-2.528 -2.105,-4.774 -4.633,-4.774 -2.668,0 -4.773,2.246 -4.773,4.774 0,2.668 2.105,4.773 4.773,4.773 2.528,0 4.633,-2.105 4.633,-4.773 z"
         style="fill:#000000;fill-opacity:1;fill-rule:nonzero;stroke:none"
         id="path12928" />
      <path
         d="m 903.859,236.707 v -2.809 h -2.808 c -8.141,0 -8.281,-0.984 -8.281,-4.21 V 179.43 c 0,-2.246 0,-2.387 -2.106,-2.387 -5.617,5.758 -13.476,5.758 -16.285,5.758 v 2.804 c 1.824,0 7.019,0 11.652,-2.382 v 46.465 c 0,3.226 -0.281,4.21 -8.281,4.21 h -2.809 v 2.809 c 3.09,-0.281 10.809,-0.281 14.457,-0.281 3.512,0 11.372,0 14.461,0.281 z"
         style="fill:#000000;fill-opacity:1;fill-rule:nonzero;stroke:none"
         id="path12930" />
      <g
         id="g12932">
        <path
           d="m 264.57,584.168 h 234.555 c 0.184,0 0.336,0.152 0.336,0.336 v 234.555 c 0,0.183 -0.152,0.336 -0.336,0.336 H 264.57 c -0.183,0 -0.336,-0.153 -0.336,-0.336 V 584.504 c 0,-0.184 0.153,-0.336 0.336,-0.336 z"
           style="fill:#96d892;fill-opacity:1;fill-rule:evenodd;stroke:#000000;stroke-width:7.36662;stroke-linecap:round;stroke-linejoin:round;stroke-miterlimit:4;stroke-dasharray:none;stroke-opacity:1"
           id="path12934" />
      </g>
      <g
         id="g12936">
        <path
           d="m 499.676,584.168 h 234.551 c 0.187,0 0.335,0.152 0.335,0.336 v 234.555 c 0,0.183 -0.148,0.336 -0.335,0.336 H 499.676 c -0.188,0 -0.336,-0.153 -0.336,-0.336 V 584.504 c 0,-0.184 0.148,-0.336 0.336,-0.336 z"
           style="fill:#f28383;fill-opacity:1;fill-rule:evenodd;stroke:#000000;stroke-width:7.36662;stroke-linecap:round;stroke-linejoin:round;stroke-miterlimit:4;stroke-dasharray:none;stroke-opacity:1"
           id="path12938" />
      </g>
      <g
         id="g12940">
        <path
           d="m 734.777,584.168 h 234.555 c 0.184,0 0.336,0.152 0.336,0.336 v 234.555 c 0,0.183 -0.152,0.336 -0.336,0.336 H 734.777 c -0.183,0 -0.336,-0.153 -0.336,-0.336 V 584.504 c 0,-0.184 0.153,-0.336 0.336,-0.336 z"
           style="fill:#f28383;fill-opacity:1;fill-rule:evenodd;stroke:#000000;stroke-width:7.36662;stroke-linecap:round;stroke-linejoin:round;stroke-miterlimit:4;stroke-dasharray:none;stroke-opacity:1"
           id="path12942" />
      </g>
      <g
         id="g12944">
        <path
           d="m 969.883,584.168 h 234.551 c 0.187,0 0.336,0.152 0.336,0.336 v 234.555 c 0,0.183 -0.149,0.336 -0.336,0.336 H 969.883 c -0.188,0 -0.336,-0.153 -0.336,-0.336 V 584.504 c 0,-0.184 0.148,-0.336 0.336,-0.336 z"
           style="fill:#f28383;fill-opacity:1;fill-rule:evenodd;stroke:#000000;stroke-width:7.36662;stroke-linecap:round;stroke-linejoin:round;stroke-miterlimit:4;stroke-dasharray:none;stroke-opacity:1"
           id="path12946" />
      </g>
      <path
         d="m 356.332,54.68 c 0,-2.668 -2.387,-2.668 -3.648,-2.668 h -4.071 V 6.387 c 0,-2.668 -0.422,-3.649 -3.511,-3.649 h -6.598 c -1.402,0 -3.649,0 -3.649,2.809 0,2.664 2.387,2.664 3.649,2.664 h 3.934 v 14.18 c -2.95,-2.668 -6.598,-4.071 -10.391,-4.071 -9.824,0 -18.387,8.563 -18.387,19.934 0,11.09 8,19.793 17.547,19.793 5.051,0 8.844,-2.387 11.231,-5.055 0,3.231 0,4.492 3.648,4.492 h 6.457 c 1.543,0 3.789,0 3.789,-2.804 z M 342.438,40.078 c 0,5.055 -3.934,12.492 -10.813,12.492 -6.457,0 -11.789,-6.316 -11.789,-14.316 0,-8.563 6.316,-14.461 12.492,-14.461 5.758,0 10.11,5.055 10.11,9.969 z"
         style="fill:#000000;fill-opacity:1;fill-rule:nonzero;stroke:none"
         id="path12948" />
      <path
         d="m 399.25,38.113 c 0,-11.23 -8.281,-20.074 -18.391,-20.074 -9.964,0 -18.386,8.844 -18.386,20.074 0,11.371 8.562,19.934 18.386,19.934 9.829,0 18.391,-8.563 18.391,-19.934 z m -6.176,-0.562 c 0,8.281 -5.617,15.019 -12.215,15.019 -6.597,0 -12.211,-6.738 -12.211,-15.019 0,-8.141 5.895,-14.039 12.211,-14.039 6.457,0 12.215,5.898 12.215,14.039 z"
         style="fill:#000000;fill-opacity:1;fill-rule:nonzero;stroke:none"
         id="path12950" />
      <path
         d="m 450.039,22.672 c 0,-1.965 -1.687,-4.774 -6.598,-4.774 -0.984,0 -5.336,0.141 -9.406,3.09 -1.547,-0.984 -4.633,-2.668 -8.703,-2.668 -8.426,0 -14.883,6.739 -14.883,14.317 0,3.933 1.547,6.879 2.949,8.566 -0.984,1.402 -1.824,3.367 -1.824,6.035 0,3.227 1.262,5.473 2.106,6.457 -6.598,4.071 -6.598,10.106 -6.598,11.09 0,7.723 9.266,13.195 20.777,13.195 11.508,0 20.914,-5.472 20.914,-13.195 0,-3.23 -1.683,-7.723 -6.175,-10.105 -1.266,-0.703 -4.914,-2.668 -13.055,-2.668 h -6.176 c -0.703,0 -1.969,0 -2.668,-0.141 -1.265,0 -1.824,0 -2.949,-1.266 -0.984,-1.261 -1.121,-3.226 -1.121,-3.226 0,-0.422 0.277,-1.684 0.559,-2.527 0.281,0.14 3.652,2.246 8.144,2.246 8.141,0 14.738,-6.457 14.738,-14.461 0,-2.664 -0.843,-5.192 -2.386,-7.719 1.964,-1.125 4.07,-1.406 5.195,-1.543 0.562,2.383 2.668,3.086 3.508,3.086 1.547,0 3.652,-1.121 3.652,-3.789 z m -16.144,9.965 c 0,5.195 -3.93,9.125 -8.563,9.125 -4.914,0 -8.703,-4.211 -8.703,-8.985 0,-5.05 3.93,-9.125 8.703,-9.125 4.77,0 8.563,4.215 8.563,8.985 z m 9.683,32.148 c 0,3.93 -6.738,7.86 -15.719,7.86 -8.984,0 -15.586,-3.93 -15.586,-7.86 0,-1.543 0.704,-4.492 3.653,-6.176 2.246,-1.547 2.949,-1.547 9.547,-1.547 8,0 18.105,0 18.105,7.723 z"
         style="fill:#000000;fill-opacity:1;fill-rule:nonzero;stroke:none"
         id="path12952" />
      <path
         d="m 588.277,49.977 c 0,-2.387 -2.527,-2.387 -3.086,-2.387 -1.406,0 -2.386,0.14 -2.949,1.965 -0.562,1.121 -2.246,5.332 -8.844,5.332 -7.582,0 -14.039,-6.317 -14.039,-14.457 0,-4.211 2.387,-14.602 14.602,-14.602 1.824,0 5.332,0 5.332,0.844 0.141,3.09 1.828,4.351 3.934,4.351 2.105,0 4.07,-1.543 4.07,-4.07 0,-6.598 -9.406,-6.598 -13.336,-6.598 -15.441,0 -20.777,12.211 -20.777,20.075 0,10.808 8.421,19.933 19.652,19.933 12.496,0 15.441,-8.843 15.441,-10.386 z"
         style="fill:#000000;fill-opacity:1;fill-rule:nonzero;stroke:none"
         id="path12954" />
      <path
         d="m 640.039,56.992 c 0,-2.664 -2.246,-2.664 -3.508,-2.664 -3.793,0 -4.773,-0.422 -5.476,-0.703 V 34.254 c 0,-6.32 -4.774,-13.899 -17.688,-13.899 -3.789,0 -13.055,0 -13.055,6.598 0,2.668 1.965,4.07 4.071,4.07 1.402,0 3.929,-0.843 3.929,-4.07 0,-0.703 0.141,-0.844 1.965,-0.984 1.266,-0.141 2.387,-0.141 3.231,-0.141 6.738,0 11.371,2.809 11.371,9.125 -15.863,0.281 -26.813,4.774 -26.813,13.336 0,6.18 5.614,12.074 14.739,12.074 3.371,0 8.843,-0.703 13.054,-3.371 1.969,2.668 6.321,2.809 9.688,2.809 2.527,0 4.492,0 4.492,-2.809 z m -15.16,-9.121 c 0,1.965 0,3.93 -3.512,5.473 -3.226,1.543 -7.156,1.543 -7.859,1.543 -5.617,0 -9.266,-3.086 -9.266,-6.598 0,-4.351 7.723,-7.719 20.637,-8 z"
         style="fill:#000000;fill-opacity:1;fill-rule:nonzero;stroke:none"
         id="path12956" />
      <path
         d="m 680.719,48.57 c 0,-1.683 0,-3.508 -3.09,-3.508 -2.945,0 -3.086,1.825 -3.086,3.368 0,5.617 -5.195,6.457 -7.16,6.457 -6.879,0 -6.879,-4.633 -6.879,-6.879 V 26.672 h 14.601 c 1.403,0 3.649,0 3.649,-2.668 0,-2.805 -2.246,-2.805 -3.649,-2.805 h -14.601 v -7.301 c 0,-1.683 0,-3.652 -3.09,-3.652 -3.086,0 -3.086,1.828 -3.086,3.652 v 7.301 h -7.863 c -1.403,0 -3.649,0 -3.649,2.805 0,2.668 2.246,2.668 3.508,2.668 h 8.004 V 48.57 c 0,8.563 6.035,11.793 12.633,11.793 6.598,0 13.758,-3.929 13.758,-11.793 z"
         style="fill:#000000;fill-opacity:1;fill-rule:nonzero;stroke:none"
         id="path12958" />
      <path
         d="m 821.629,44.922 c 0,-2.387 -2.527,-2.387 -3.09,-2.387 -1.402,0 -2.387,0.141 -2.949,1.965 -0.559,1.125 -2.246,5.336 -8.844,5.336 -7.578,0 -14.035,-6.32 -14.035,-14.461 0,-4.211 2.383,-14.598 14.598,-14.598 1.824,0 5.336,0 5.336,0.84 0.14,3.09 1.824,4.352 3.929,4.352 2.106,0 4.071,-1.543 4.071,-4.071 0,-6.597 -9.407,-6.597 -13.336,-6.597 -15.442,0 -20.778,12.215 -20.778,20.074 0,10.809 8.426,19.934 19.657,19.934 12.492,0 15.441,-8.844 15.441,-10.387 z"
         style="fill:#000000;fill-opacity:1;fill-rule:nonzero;stroke:none"
         id="path12960" />
      <path
         d="m 873.387,51.941 c 0,-2.668 -2.246,-2.668 -3.508,-2.668 -3.789,0 -4.774,-0.421 -5.477,-0.703 V 29.199 c 0,-6.316 -4.773,-13.898 -17.687,-13.898 -3.789,0 -13.055,0 -13.055,6.597 0,2.668 1.965,4.071 4.07,4.071 1.407,0 3.934,-0.84 3.934,-4.071 0,-0.703 0.137,-0.839 1.965,-0.98 1.262,-0.141 2.387,-0.141 3.226,-0.141 6.739,0 11.372,2.805 11.372,9.125 -15.864,0.278 -26.813,4.77 -26.813,13.336 0,6.176 5.617,12.071 14.742,12.071 3.367,0 8.844,-0.7 13.055,-3.368 1.965,2.668 6.316,2.805 9.684,2.805 2.527,0 4.492,0 4.492,-2.805 z m -15.16,-9.125 c 0,1.965 0,3.93 -3.508,5.473 -3.231,1.547 -7.16,1.547 -7.864,1.547 -5.613,0 -9.265,-3.09 -9.265,-6.598 0,-4.351 7.722,-7.722 20.637,-8.004 z"
         style="fill:#000000;fill-opacity:1;fill-rule:nonzero;stroke:none"
         id="path12962" />
      <path
         d="m 917.578,21.195 c 0,-1.824 -1.125,-5.613 -8.562,-5.613 -4.493,0 -10.25,1.684 -15.164,7.301 v -3.09 c 0,-2.809 -0.559,-3.648 -3.649,-3.648 h -9.828 c -1.402,0 -3.648,0 -3.648,2.667 0,2.805 2.246,2.805 3.648,2.805 h 7.301 v 27.656 h -7.301 c -1.402,0 -3.648,0 -3.648,2.668 0,2.805 2.246,2.805 3.648,2.805 h 23.305 c 1.402,0 3.789,0 3.789,-2.664 0,-2.809 -2.387,-2.809 -3.789,-2.809 h -9.828 v -11.23 c 0,-8.422 5.195,-16.984 16.003,-16.984 0.141,2.105 1.684,3.929 3.93,3.929 1.969,0 3.793,-1.406 3.793,-3.793 z"
         style="fill:#000000;fill-opacity:1;fill-rule:nonzero;stroke:none"
         id="path12964" />
      <path
         d="m 1015.496,35.375 c 0,-10.949 -7.863,-19.793 -17.41,-19.793 -4.352,0 -8.281,1.684 -11.371,4.352 0,-2.528 -0.141,-3.789 -3.649,-3.789 h -6.457 c -1.402,0 -3.648,0 -3.648,2.808 0,2.664 2.246,2.664 3.508,2.664 h 4.07 v 47.59 h -3.93 c -1.402,0 -3.648,0 -3.648,2.668 0,2.809 2.246,2.809 3.508,2.809 h 14.32 c 1.262,0 3.508,0 3.508,-2.809 0,-2.668 -2.246,-2.668 -3.649,-2.668 h -3.933 V 50.676 c 3.652,3.793 7.582,4.633 10.39,4.633 9.684,0 18.391,-8.563 18.391,-19.934 z m -6.18,0 c 0,8.563 -6.175,14.461 -12.492,14.461 -7.019,0 -10.109,-7.863 -10.109,-12.215 v -6.457 c 0,-5.336 5.195,-10.105 10.812,-10.105 6.598,0 11.789,6.597 11.789,14.316 z"
         style="fill:#000000;fill-opacity:1;fill-rule:nonzero;stroke:none"
         id="path12966" />
      <path
         d="m 1060.656,52.082 c 0,-2.809 -2.105,-2.809 -3.648,-2.809 h -11.653 V 3.648 c 0,-2.664 -0.421,-3.648 -3.507,-3.648 h -14.18 c -1.402,0 -3.648,0 -3.648,2.809 0,2.668 2.386,2.668 3.648,2.668 h 11.512 v 43.796 h -11.512 c -1.402,0 -3.648,0 -3.648,2.809 0,2.664 2.386,2.664 3.648,2.664 h 29.34 c 1.402,0 3.648,0 3.648,-2.664 z"
         style="fill:#000000;fill-opacity:1;fill-rule:nonzero;stroke:none"
         id="path12968" />
      <path
         d="m 1112.285,51.941 c 0,-2.668 -2.246,-2.668 -3.508,-2.668 -3.789,0 -4.773,-0.421 -5.476,-0.703 V 29.199 c 0,-6.316 -4.774,-13.898 -17.688,-13.898 -3.789,0 -13.054,0 -13.054,6.597 0,2.668 1.964,4.071 4.07,4.071 1.406,0 3.93,-0.84 3.93,-4.071 0,-0.703 0.14,-0.839 1.968,-0.98 1.262,-0.141 2.387,-0.141 3.227,-0.141 6.738,0 11.371,2.805 11.371,9.125 -15.863,0.278 -26.813,4.77 -26.813,13.336 0,6.176 5.618,12.071 14.739,12.071 3.371,0 8.847,-0.7 13.058,-3.368 1.965,2.668 6.317,2.805 9.684,2.805 2.527,0 4.492,0 4.492,-2.805 z m -15.16,-9.125 c 0,1.965 0,3.93 -3.508,5.473 -3.23,1.547 -7.16,1.547 -7.863,1.547 -5.613,0 -9.266,-3.09 -9.266,-6.598 0,-4.351 7.723,-7.722 20.637,-8.004 z"
         style="fill:#000000;fill-opacity:1;fill-rule:nonzero;stroke:none"
         id="path12970" />
      <path
         d="m 1158.711,52.082 c 0,-2.809 -2.246,-2.809 -3.789,-2.809 h -3.93 V 28.496 c 0,-8.984 -4.492,-12.914 -11.652,-12.914 -5.895,0 -9.965,3.09 -11.652,4.773 0,-2.808 0,-4.21 -3.649,-4.21 h -6.457 c -1.406,0 -3.652,0 -3.652,2.808 0,2.664 2.246,2.664 3.511,2.664 h 4.071 v 27.656 h -3.93 c -1.406,0 -3.652,0 -3.652,2.809 0,2.664 2.246,2.664 3.511,2.664 h 14.317 c 1.265,0 3.512,0 3.512,-2.664 0,-2.809 -2.247,-2.809 -3.649,-2.809 h -3.933 V 33.41 c 0,-8.984 6.597,-12.351 11.23,-12.351 4.633,0 5.898,2.523 5.898,7.859 v 20.355 h -3.371 c -1.543,0 -3.789,0 -3.789,2.809 0,2.664 2.528,2.664 3.789,2.664 h 13.617 c 1.262,0 3.649,0 3.649,-2.664 z"
         style="fill:#000000;fill-opacity:1;fill-rule:nonzero;stroke:none"
         id="path12972" />
      <path
         d="m 1201.355,44.922 c 0,-2.387 -2.523,-2.387 -3.085,-2.387 -1.684,0 -2.387,0.281 -2.95,1.965 -1.965,4.492 -6.879,5.336 -9.406,5.336 -6.738,0 -13.336,-4.492 -14.879,-12.215 h 26.813 c 1.824,0 3.507,0 3.507,-3.226 0,-10.25 -5.753,-19.094 -17.406,-19.094 -10.668,0 -19.23,8.984 -19.23,20.074 0,10.809 9.125,19.934 20.636,19.934 11.79,0 16,-8.141 16,-10.387 z m -6.316,-12.633 h -23.863 c 1.262,-6.601 6.597,-11.512 12.773,-11.512 4.633,0 10.25,2.246 11.09,11.512 z"
         style="fill:#000000;fill-opacity:1;fill-rule:nonzero;stroke:none"
         id="path12974" />
      <path
         d="m 89.672,222.594 c 0,-2.668 -2.387,-2.668 -3.649,-2.668 h -4.07 v -45.621 c 0,-2.668 -0.422,-3.653 -3.512,-3.653 h -6.597 c -1.403,0 -3.649,0 -3.649,2.809 0,2.668 2.387,2.668 3.649,2.668 h 3.929 v 14.18 c -2.945,-2.668 -6.597,-4.075 -10.386,-4.075 -9.828,0 -18.391,8.567 -18.391,19.938 0,11.09 8.004,19.793 17.547,19.793 5.055,0 8.844,-2.387 11.23,-5.055 0,3.227 0,4.492 3.653,4.492 h 6.457 c 1.543,0 3.789,0 3.789,-2.808 z M 75.773,207.996 c 0,5.051 -3.929,12.492 -10.808,12.492 -6.457,0 -11.793,-6.316 -11.793,-14.316 0,-8.567 6.32,-14.461 12.496,-14.461 5.754,0 10.105,5.055 10.105,9.969 z"
         style="fill:#000000;fill-opacity:1;fill-rule:nonzero;stroke:none"
         id="path12976" />
      <path
         d="m 132.59,206.031 c 0,-11.23 -8.285,-20.074 -18.391,-20.074 -9.969,0 -18.39,8.844 -18.39,20.074 0,11.371 8.562,19.934 18.39,19.934 9.828,0 18.391,-8.563 18.391,-19.934 z m -6.176,-0.562 c 0,8.281 -5.617,15.019 -12.215,15.019 -6.597,0 -12.215,-6.738 -12.215,-15.019 0,-8.141 5.899,-14.039 12.215,-14.039 6.457,0 12.215,5.898 12.215,14.039 z"
         style="fill:#000000;fill-opacity:1;fill-rule:nonzero;stroke:none"
         id="path12978" />
      <path
         d="m 183.375,190.59 c 0,-1.969 -1.684,-4.774 -6.598,-4.774 -0.98,0 -5.332,0.141 -9.406,3.086 -1.543,-0.98 -4.633,-2.668 -8.703,-2.668 -8.422,0 -14.879,6.739 -14.879,14.321 0,3.929 1.543,6.879 2.949,8.562 -0.984,1.406 -1.828,3.371 -1.828,6.039 0,3.227 1.266,5.473 2.11,6.457 -6.602,4.071 -6.602,10.106 -6.602,11.09 0,7.719 9.266,13.195 20.777,13.195 11.512,0 20.918,-5.476 20.918,-13.195 0,-3.23 -1.683,-7.723 -6.175,-10.109 -1.266,-0.703 -4.915,-2.668 -13.059,-2.668 h -6.176 c -0.703,0 -1.965,0 -2.668,-0.141 -1.262,0 -1.824,0 -2.945,-1.262 -0.985,-1.261 -1.125,-3.23 -1.125,-3.23 0,-0.418 0.281,-1.684 0.562,-2.523 0.282,0.14 3.649,2.246 8.141,2.246 8.144,0 14.742,-6.461 14.742,-14.461 0,-2.668 -0.844,-5.196 -2.387,-7.719 1.965,-1.125 4.071,-1.406 5.192,-1.547 0.562,2.387 2.668,3.09 3.512,3.09 1.543,0 3.648,-1.125 3.648,-3.789 z m -16.145,9.965 c 0,5.195 -3.929,9.125 -8.562,9.125 -4.914,0 -8.703,-4.211 -8.703,-8.985 0,-5.054 3.93,-9.125 8.703,-9.125 4.773,0 8.562,4.211 8.562,8.985 z m 9.688,32.148 c 0,3.93 -6.738,7.859 -15.723,7.859 -8.984,0 -15.582,-3.929 -15.582,-7.859 0,-1.547 0.703,-4.492 3.653,-6.18 2.242,-1.543 2.945,-1.543 9.543,-1.543 8.003,0 18.109,0 18.109,7.723 z"
         style="fill:#000000;fill-opacity:1;fill-rule:nonzero;stroke:none"
         id="path12980" />
      <path
         d="m 83.773,711.398 c 0,-2.386 -2.527,-2.386 -3.089,-2.386 -1.403,0 -2.387,0.14 -2.95,1.965 -0.558,1.121 -2.246,5.335 -8.843,5.335 -7.579,0 -14.036,-6.32 -14.036,-14.46 0,-4.211 2.383,-14.598 14.598,-14.598 1.824,0 5.336,0 5.336,0.84 0.141,3.09 1.824,4.351 3.93,4.351 2.105,0 4.07,-1.543 4.07,-4.07 0,-6.598 -9.406,-6.598 -13.336,-6.598 -15.441,0 -20.777,12.215 -20.777,20.075 0,10.808 8.426,19.933 19.652,19.933 12.496,0 15.445,-8.844 15.445,-10.387 z"
         style="fill:#000000;fill-opacity:1;fill-rule:nonzero;stroke:none"
         id="path12982" />
      <path
         d="m 135.531,718.418 c 0,-2.668 -2.246,-2.668 -3.508,-2.668 -3.789,0 -4.773,-0.422 -5.476,-0.703 v -19.371 c 0,-6.317 -4.774,-13.899 -17.688,-13.899 -3.789,0 -13.054,0 -13.054,6.598 0,2.668 1.965,4.07 4.07,4.07 1.406,0 3.934,-0.84 3.934,-4.07 0,-0.703 0.136,-0.84 1.964,-0.98 1.262,-0.141 2.387,-0.141 3.227,-0.141 6.738,0 11.371,2.805 11.371,9.125 -15.863,0.277 -26.812,4.769 -26.812,13.336 0,6.176 5.617,12.07 14.738,12.07 3.371,0 8.848,-0.703 13.058,-3.367 1.965,2.664 6.317,2.805 9.684,2.805 2.527,0 4.492,0 4.492,-2.805 z m -15.16,-9.125 c 0,1.965 0,3.93 -3.508,5.473 -3.23,1.546 -7.16,1.546 -7.863,1.546 -5.613,0 -9.266,-3.089 -9.266,-6.597 0,-4.352 7.723,-7.723 20.637,-8.004 z"
         style="fill:#000000;fill-opacity:1;fill-rule:nonzero;stroke:none"
         id="path12984" />
      <path
         d="m 179.723,687.672 c 0,-1.824 -1.125,-5.613 -8.563,-5.613 -4.492,0 -10.25,1.683 -15.164,7.3 v -3.089 c 0,-2.809 -0.558,-3.649 -3.648,-3.649 h -9.828 c -1.403,0 -3.649,0 -3.649,2.668 0,2.805 2.246,2.805 3.649,2.805 h 7.3 v 27.656 h -7.3 c -1.403,0 -3.649,0 -3.649,2.668 0,2.805 2.246,2.805 3.649,2.805 h 23.304 c 1.403,0 3.789,0 3.789,-2.664 0,-2.809 -2.386,-2.809 -3.789,-2.809 h -9.828 v -11.23 c 0,-8.422 5.195,-16.985 16.004,-16.985 0.141,2.106 1.684,3.93 3.93,3.93 1.968,0 3.793,-1.406 3.793,-3.793 z"
         style="fill:#000000;fill-opacity:1;fill-rule:nonzero;stroke:none"
         id="path12986" />
      <g
         id="g12988">
        <path
           d="m 264.57,337.207 h 234.555 c 0.184,0 0.336,0.148 0.336,0.336 v 234.551 c 0,0.187 -0.152,0.336 -0.336,0.336 H 264.57 c -0.183,0 -0.336,-0.149 -0.336,-0.336 V 337.543 c 0,-0.188 0.153,-0.336 0.336,-0.336 z"
           style="fill:#96d892;fill-opacity:1;fill-rule:evenodd;stroke:#000000;stroke-width:7.36662;stroke-linecap:round;stroke-linejoin:round;stroke-miterlimit:4;stroke-dasharray:none;stroke-opacity:1"
           id="path12990" />
      </g>
      <g
         id="g12992">
        <path
           d="m 499.676,337.207 h 234.551 c 0.187,0 0.335,0.148 0.335,0.336 v 234.551 c 0,0.187 -0.148,0.336 -0.335,0.336 H 499.676 c -0.188,0 -0.336,-0.149 -0.336,-0.336 V 337.543 c 0,-0.188 0.148,-0.336 0.336,-0.336 z"
           style="fill:#f28383;fill-opacity:1;fill-rule:evenodd;stroke:#000000;stroke-width:7.36662;stroke-linecap:round;stroke-linejoin:round;stroke-miterlimit:4;stroke-dasharray:none;stroke-opacity:1"
           id="path12994" />
      </g>
      <g
         id="g12996">
        <path
           d="m 734.777,337.207 h 234.555 c 0.184,0 0.336,0.148 0.336,0.336 v 234.551 c 0,0.187 -0.152,0.336 -0.336,0.336 H 734.777 c -0.183,0 -0.336,-0.149 -0.336,-0.336 V 337.543 c 0,-0.188 0.153,-0.336 0.336,-0.336 z"
           style="fill:#f28383;fill-opacity:1;fill-rule:evenodd;stroke:#000000;stroke-width:7.36662;stroke-linecap:round;stroke-linejoin:round;stroke-miterlimit:4;stroke-dasharray:none;stroke-opacity:1"
           id="path12998" />
      </g>
      <g
         id="g13000">
        <path
           d="m 969.883,337.207 h 234.551 c 0.187,0 0.336,0.148 0.336,0.336 v 234.551 c 0,0.187 -0.149,0.336 -0.336,0.336 H 969.883 c -0.188,0 -0.336,-0.149 -0.336,-0.336 V 337.543 c 0,-0.188 0.148,-0.336 0.336,-0.336 z"
           style="fill:#f28383;fill-opacity:1;fill-rule:evenodd;stroke:#000000;stroke-width:7.36662;stroke-linecap:round;stroke-linejoin:round;stroke-miterlimit:4;stroke-dasharray:none;stroke-opacity:1"
           id="path13002" />
      </g>
      <g
         id="g13004">
        <path
           d="m 264.57,831.133 h 234.555 c 0.184,0 0.336,0.148 0.336,0.336 v 234.551 c 0,0.187 -0.152,0.339 -0.336,0.339 H 264.57 c -0.183,0 -0.336,-0.152 -0.336,-0.339 V 831.469 c 0,-0.188 0.153,-0.336 0.336,-0.336 z"
           style="fill:#96d892;fill-opacity:1;fill-rule:evenodd;stroke:#000000;stroke-width:7.36662;stroke-linecap:round;stroke-linejoin:round;stroke-miterlimit:4;stroke-dasharray:none;stroke-opacity:1"
           id="path13006" />
      </g>
      <g
         id="g13008">
        <path
           d="m 499.676,831.133 h 234.551 c 0.187,0 0.335,0.148 0.335,0.336 v 234.551 c 0,0.187 -0.148,0.339 -0.335,0.339 H 499.676 c -0.188,0 -0.336,-0.152 -0.336,-0.339 V 831.469 c 0,-0.188 0.148,-0.336 0.336,-0.336 z"
           style="fill:#f28383;fill-opacity:1;fill-rule:evenodd;stroke:#000000;stroke-width:7.36662;stroke-linecap:round;stroke-linejoin:round;stroke-miterlimit:4;stroke-dasharray:none;stroke-opacity:1"
           id="path13010" />
      </g>
      <g
         id="g13012">
        <path
           d="m 734.777,831.133 h 234.555 c 0.184,0 0.336,0.148 0.336,0.336 v 234.551 c 0,0.187 -0.152,0.339 -0.336,0.339 H 734.777 c -0.183,0 -0.336,-0.152 -0.336,-0.339 V 831.469 c 0,-0.188 0.153,-0.336 0.336,-0.336 z"
           style="fill:#f28383;fill-opacity:1;fill-rule:evenodd;stroke:#000000;stroke-width:7.36662;stroke-linecap:round;stroke-linejoin:round;stroke-miterlimit:4;stroke-dasharray:none;stroke-opacity:1"
           id="path13014" />
      </g>
      <g
         id="g13016">
        <path
           d="m 969.883,831.133 h 234.551 c 0.187,0 0.336,0.148 0.336,0.336 v 234.551 c 0,0.187 -0.149,0.339 -0.336,0.339 H 969.883 c -0.188,0 -0.336,-0.152 -0.336,-0.339 V 831.469 c 0,-0.188 0.148,-0.336 0.336,-0.336 z"
           style="fill:#f28383;fill-opacity:1;fill-rule:evenodd;stroke:#000000;stroke-width:7.36662;stroke-linecap:round;stroke-linejoin:round;stroke-miterlimit:4;stroke-dasharray:none;stroke-opacity:1"
           id="path13018" />
      </g>
      <path
         d="m 86.512,469.488 c 0,-2.386 -2.524,-2.386 -3.086,-2.386 -1.406,0 -2.387,0.14 -2.949,1.964 -0.563,1.125 -2.247,5.336 -8.844,5.336 -7.578,0 -14.039,-6.316 -14.039,-14.461 0,-4.211 2.386,-14.597 14.601,-14.597 1.825,0 5.336,0 5.336,0.84 0.137,3.089 1.824,4.351 3.93,4.351 2.105,0 4.07,-1.543 4.07,-4.07 0,-6.598 -9.406,-6.598 -13.336,-6.598 -15.441,0 -20.777,12.215 -20.777,20.074 0,10.809 8.422,19.934 19.652,19.934 12.496,0 15.442,-8.844 15.442,-10.387 z"
         style="fill:#000000;fill-opacity:1;fill-rule:nonzero;stroke:none"
         id="path13020" />
      <path
         d="m 138.273,476.508 c 0,-2.668 -2.246,-2.668 -3.507,-2.668 -3.793,0 -4.774,-0.422 -5.477,-0.703 v -19.371 c 0,-6.317 -4.773,-13.899 -17.687,-13.899 -3.79,0 -13.055,0 -13.055,6.598 0,2.668 1.965,4.07 4.07,4.07 1.406,0 3.93,-0.84 3.93,-4.07 0,-0.699 0.141,-0.84 1.969,-0.981 1.261,-0.14 2.382,-0.14 3.226,-0.14 6.738,0 11.371,2.804 11.371,9.125 -15.863,0.277 -26.812,4.769 -26.812,13.336 0,6.175 5.613,12.07 14.738,12.07 3.371,0 8.844,-0.699 13.059,-3.367 1.964,2.668 6.316,2.804 9.683,2.804 2.528,0 4.492,0 4.492,-2.804 z m -15.16,-9.125 c 0,1.965 0,3.929 -3.508,5.472 -3.23,1.547 -7.16,1.547 -7.863,1.547 -5.613,0 -9.265,-3.09 -9.265,-6.597 0,-4.352 7.722,-7.723 20.636,-8.004 z"
         style="fill:#000000;fill-opacity:1;fill-rule:nonzero;stroke:none"
         id="path13022" />
      <path
         d="m 178.953,468.086 c 0,-1.688 0,-3.512 -3.086,-3.512 -2.949,0 -3.09,1.824 -3.09,3.371 0,5.614 -5.195,6.457 -7.16,6.457 -6.879,0 -6.879,-4.632 -6.879,-6.879 v -21.339 h 14.602 c 1.402,0 3.648,0 3.648,-2.664 0,-2.809 -2.246,-2.809 -3.648,-2.809 h -14.602 v -7.301 c 0,-1.683 0,-3.648 -3.086,-3.648 -3.09,0 -3.09,1.824 -3.09,3.648 v 7.301 h -7.859 c -1.406,0 -3.652,0 -3.652,2.809 0,2.664 2.246,2.664 3.511,2.664 h 8 v 21.902 c 0,8.562 6.036,11.789 12.633,11.789 6.598,0 13.758,-3.93 13.758,-11.789 z"
         style="fill:#000000;fill-opacity:1;fill-rule:nonzero;stroke:none"
         id="path13024" />
      <path
         d="m 42.535,946.781 c 0,-10.949 -7.863,-19.793 -17.406,-19.793 -4.352,0 -8.285,1.684 -11.371,4.352 0,-2.528 -0.141,-3.793 -3.649,-3.793 H 3.648 c -1.402,0 -3.648,0 -3.648,2.808 0,2.668 2.246,2.668 3.508,2.668 h 4.074 v 47.59 H 3.648 c -1.402,0 -3.648,0 -3.648,2.664 0,2.809 2.246,2.809 3.508,2.809 h 14.32 c 1.262,0 3.508,0 3.508,-2.809 0,-2.664 -2.246,-2.664 -3.648,-2.664 h -3.93 v -18.531 c 3.648,3.789 7.578,4.633 10.387,4.633 9.687,0 18.39,-8.563 18.39,-19.934 z m -6.176,0 c 0,8.563 -6.175,14.457 -12.496,14.457 -7.019,0 -10.105,-7.859 -10.105,-12.211 v -6.457 c 0,-5.336 5.195,-10.109 10.808,-10.109 6.598,0 11.793,6.598 11.793,14.32 z"
         style="fill:#000000;fill-opacity:1;fill-rule:nonzero;stroke:none"
         id="path13026" />
      <path
         d="m 87.699,963.484 c 0,-2.804 -2.105,-2.804 -3.652,-2.804 H 72.398 v -45.625 c 0,-2.668 -0.421,-3.649 -3.511,-3.649 h -14.18 c -1.402,0 -3.648,0 -3.648,2.805 0,2.668 2.386,2.668 3.648,2.668 H 66.219 V 960.68 H 54.707 c -1.402,0 -3.648,0 -3.648,2.804 0,2.668 2.386,2.668 3.648,2.668 h 29.34 c 1.406,0 3.652,0 3.652,-2.668 z"
         style="fill:#000000;fill-opacity:1;fill-rule:nonzero;stroke:none"
         id="path13028" />
      <path
         d="m 139.328,963.344 c 0,-2.664 -2.246,-2.664 -3.512,-2.664 -3.789,0 -4.773,-0.422 -5.472,-0.703 v -19.372 c 0,-6.32 -4.774,-13.898 -17.688,-13.898 -3.793,0 -13.054,0 -13.054,6.598 0,2.668 1.964,4.07 4.07,4.07 1.402,0 3.93,-0.844 3.93,-4.07 0,-0.703 0.14,-0.844 1.964,-0.985 1.266,-0.14 2.387,-0.14 3.231,-0.14 6.738,0 11.371,2.808 11.371,9.125 -15.863,0.281 -26.813,4.773 -26.813,13.336 0,6.175 5.614,12.074 14.739,12.074 3.367,0 8.844,-0.703 13.054,-3.371 1.965,2.668 6.317,2.808 9.688,2.808 2.527,0 4.492,0 4.492,-2.808 z m -15.16,-9.125 c 0,1.969 0,3.933 -3.512,5.476 -3.226,1.543 -7.16,1.543 -7.859,1.543 -5.617,0 -9.266,-3.086 -9.266,-6.597 0,-4.352 7.719,-7.719 20.637,-8 z"
         style="fill:#000000;fill-opacity:1;fill-rule:nonzero;stroke:none"
         id="path13030" />
      <path
         d="m 185.754,963.484 c 0,-2.804 -2.246,-2.804 -3.789,-2.804 h -3.934 v -20.778 c 0,-8.984 -4.492,-12.914 -11.648,-12.914 -5.899,0 -9.969,3.086 -11.653,4.77 0,-2.805 0,-4.211 -3.652,-4.211 h -6.457 c -1.402,0 -3.648,0 -3.648,2.808 0,2.668 2.246,2.668 3.507,2.668 h 4.075 v 27.657 h -3.934 c -1.402,0 -3.648,0 -3.648,2.804 0,2.668 2.246,2.668 3.507,2.668 h 14.321 c 1.261,0 3.508,0 3.508,-2.668 0,-2.804 -2.247,-2.804 -3.649,-2.804 h -3.93 v -15.864 c 0,-8.984 6.598,-12.355 11.231,-12.355 4.633,0 5.894,2.527 5.894,7.863 v 20.356 h -3.367 c -1.547,0 -3.793,0 -3.793,2.804 0,2.668 2.528,2.668 3.793,2.668 h 13.614 c 1.265,0 3.652,0 3.652,-2.668 z"
         style="fill:#000000;fill-opacity:1;fill-rule:nonzero;stroke:none"
         id="path13032" />
      <path
         d="m 228.398,956.324 c 0,-2.383 -2.527,-2.383 -3.089,-2.383 -1.684,0 -2.387,0.278 -2.946,1.965 -1.965,4.492 -6.879,5.332 -9.406,5.332 -6.738,0 -13.336,-4.492 -14.879,-12.211 h 26.813 c 1.824,0 3.507,0 3.507,-3.23 0,-10.246 -5.753,-19.09 -17.406,-19.09 -10.668,0 -19.234,8.984 -19.234,20.074 0,10.809 9.125,19.934 20.637,19.934 11.793,0 16.003,-8.145 16.003,-10.391 z m -6.316,-12.633 h -23.867 c 1.265,-6.597 6.601,-11.511 12.777,-11.511 4.633,0 10.246,2.246 11.09,11.511 z"
         style="fill:#000000;fill-opacity:1;fill-rule:nonzero;stroke:none"
         id="path13034" />
      <path
         d="m 364.719,455.449 c 0,-7.16 -0.422,-14.316 -3.512,-20.914 -4.07,-8.707 -11.512,-10.109 -15.16,-10.109 -5.477,0 -11.934,2.386 -15.723,10.668 -2.808,6.179 -3.23,13.195 -3.23,20.355 0,6.739 0.281,14.742 4.074,21.617 3.789,7.161 10.387,8.985 14.738,8.985 4.774,0 11.653,-1.824 15.582,-10.387 2.809,-6.176 3.231,-13.195 3.231,-20.215 z m -7.301,-1.121 c 0,6.738 0,12.774 -0.984,18.527 -1.403,8.567 -6.457,11.231 -10.528,11.231 -3.508,0 -8.844,-2.246 -10.386,-10.809 -0.985,-5.332 -0.985,-13.617 -0.985,-18.949 0,-5.758 0,-11.652 0.703,-16.426 1.684,-10.668 8.422,-11.511 10.668,-11.511 2.949,0 8.844,1.683 10.528,10.527 0.984,5.055 0.984,11.793 0.984,17.41 z"
         style="fill:#000000;fill-opacity:1;fill-rule:nonzero;stroke:none"
         id="path13036" />
      <path
         d="m 385.465,479.312 c 0,-2.523 -2.11,-4.769 -4.633,-4.769 -2.668,0 -4.773,2.246 -4.773,4.769 0,2.668 2.105,4.774 4.773,4.774 2.523,0 4.633,-2.106 4.633,-4.774 z"
         style="fill:#000000;fill-opacity:1;fill-rule:nonzero;stroke:none"
         id="path13038" />
      <path
         d="M 436.602,426.391 H 414.84 c -10.809,0 -11.09,-1.121 -11.367,-2.809 h -2.246 l -2.95,18.391 h 2.246 c 0.282,-1.403 0.981,-7.02 2.247,-8.141 0.562,-0.562 7.578,-0.562 8.703,-0.562 h 18.531 l -9.969,14.179 c -8.14,12.071 -11.09,24.567 -11.09,33.692 0,0.839 0,4.91 4.211,4.91 4.071,0 4.071,-4.071 4.071,-4.91 v -4.633 c 0,-4.914 0.281,-9.828 0.984,-14.602 0.422,-2.105 1.543,-9.824 5.613,-15.301 l 12.074,-17.125 c 0.704,-0.984 0.704,-1.125 0.704,-3.089 z"
         style="fill:#000000;fill-opacity:1;fill-rule:nonzero;stroke:none"
         id="path13040" />
      <path
         d="m 601.434,455.027 c 0,-7.156 -0.418,-14.316 -3.508,-20.914 -4.071,-8.703 -11.512,-10.109 -15.16,-10.109 -5.477,0 -11.934,2.387 -15.723,10.668 -2.809,6.18 -3.231,13.199 -3.231,20.355 0,6.739 0.282,14.743 4.071,21.621 3.793,7.157 10.39,8.985 14.742,8.985 4.773,0 11.652,-1.828 15.582,-10.391 2.809,-6.176 3.227,-13.195 3.227,-20.215 z m -7.297,-1.121 c 0,6.739 0,12.774 -0.985,18.532 -1.402,8.562 -6.457,11.226 -10.527,11.226 -3.512,0 -8.844,-2.246 -10.387,-10.809 -0.984,-5.332 -0.984,-13.617 -0.984,-18.949 0,-5.758 0,-11.652 0.703,-16.426 1.684,-10.668 8.422,-11.511 10.668,-11.511 2.949,0 8.844,1.687 10.527,10.531 0.985,5.051 0.985,11.789 0.985,17.406 z"
         style="fill:#000000;fill-opacity:1;fill-rule:nonzero;stroke:none"
         id="path13042" />
      <path
         d="m 622.18,478.895 c 0,-2.528 -2.106,-4.774 -4.633,-4.774 -2.664,0 -4.77,2.246 -4.77,4.774 0,2.664 2.106,4.769 4.77,4.769 2.527,0 4.633,-2.105 4.633,-4.769 z"
         style="fill:#000000;fill-opacity:1;fill-rule:nonzero;stroke:none"
         id="path13044" />
      <path
         d="m 670.09,468.082 h -2.106 c -0.562,2.668 -1.125,6.598 -2.105,8.004 -0.563,0.703 -6.457,0.703 -8.422,0.703 h -16.145 l 9.547,-9.266 c 13.895,-12.355 19.231,-17.128 19.231,-26.113 0,-10.246 -8,-17.406 -18.953,-17.406 -10.106,0 -16.703,8.285 -16.703,16.285 0,4.914 4.492,4.914 4.773,4.914 1.543,0 4.633,-0.984 4.633,-4.773 0,-2.246 -1.688,-4.633 -4.774,-4.633 -0.703,0 -0.843,0 -1.125,0.141 1.965,-5.895 6.879,-9.126 12.075,-9.126 8.14,0 11.933,7.301 11.933,14.598 0,7.16 -4.351,14.18 -9.406,19.797 l -17.129,19.09 c -0.98,0.984 -0.98,1.262 -0.98,3.367 h 33.269 z"
         style="fill:#000000;fill-opacity:1;fill-rule:nonzero;stroke:none"
         id="path13046" />
      <path
         d="m 1071.152,455.027 c 0,-7.156 -0.422,-14.316 -3.511,-20.914 -4.071,-8.703 -11.512,-10.109 -15.161,-10.109 -5.476,0 -11.933,2.387 -15.722,10.668 -2.809,6.18 -3.231,13.199 -3.231,20.355 0,6.739 0.282,14.743 4.075,21.621 3.789,7.157 10.386,8.985 14.738,8.985 4.773,0 11.652,-1.828 15.582,-10.391 2.808,-6.176 3.23,-13.195 3.23,-20.215 z m -7.3,-1.121 c 0,6.739 0,12.774 -0.985,18.532 -1.402,8.562 -6.457,11.23 -10.527,11.23 -3.508,0 -8.844,-2.246 -10.387,-10.813 -0.984,-5.332 -0.984,-13.617 -0.984,-18.949 0,-5.758 0,-11.652 0.703,-16.426 1.683,-10.668 8.422,-11.511 10.668,-11.511 2.949,0 8.844,1.687 10.527,10.531 0.985,5.051 0.985,11.789 0.985,17.406 z"
         style="fill:#000000;fill-opacity:1;fill-rule:nonzero;stroke:none"
         id="path13048" />
      <path
         d="m 1091.895,478.895 c 0,-2.528 -2.106,-4.774 -4.629,-4.774 -2.668,0 -4.774,2.246 -4.774,4.774 0,2.664 2.106,4.773 4.774,4.773 2.523,0 4.629,-2.109 4.629,-4.773 z"
         style="fill:#000000;fill-opacity:1;fill-rule:nonzero;stroke:none"
         id="path13050" />
      <path
         d="m 1140.789,455.027 c 0,-7.156 -0.422,-14.316 -3.512,-20.914 -4.07,-8.703 -11.511,-10.109 -15.16,-10.109 -5.476,0 -11.933,2.387 -15.722,10.668 -2.809,6.18 -3.227,13.199 -3.227,20.355 0,6.739 0.277,14.743 4.07,21.621 3.789,7.157 10.387,8.985 14.739,8.985 4.773,0 11.652,-1.828 15.582,-10.391 2.808,-6.176 3.23,-13.195 3.23,-20.215 z m -7.301,-1.121 c 0,6.739 0,12.774 -0.984,18.532 -1.402,8.562 -6.457,11.23 -10.527,11.23 -3.508,0 -8.844,-2.246 -10.387,-10.813 -0.985,-5.332 -0.985,-13.617 -0.985,-18.949 0,-5.758 0,-11.652 0.704,-16.426 1.683,-10.668 8.421,-11.511 10.668,-11.511 2.949,0 8.843,1.687 10.527,10.531 0.984,5.051 0.984,11.789 0.984,17.406 z"
         style="fill:#000000;fill-opacity:1;fill-rule:nonzero;stroke:none"
         id="path13052" />
      <path
         d="m 837.871,455.031 c 0,-7.16 -0.422,-14.316 -3.508,-20.918 -4.07,-8.703 -11.511,-10.105 -15.16,-10.105 -5.476,0 -11.933,2.387 -15.723,10.668 -2.808,6.176 -3.23,13.195 -3.23,20.355 0,6.739 0.281,14.739 4.07,21.617 3.793,7.161 10.391,8.985 14.742,8.985 4.774,0 11.649,-1.824 15.583,-10.387 2.804,-6.176 3.226,-13.195 3.226,-20.215 z m -7.297,-1.121 c 0,6.738 0,12.774 -0.984,18.528 -1.402,8.562 -6.457,11.23 -10.528,11.23 -3.511,0 -8.843,-2.246 -10.39,-10.809 -0.981,-5.336 -0.981,-13.617 -0.981,-18.949 0,-5.758 0,-11.652 0.7,-16.426 1.687,-10.668 8.425,-11.511 10.671,-11.511 2.946,0 8.844,1.683 10.528,10.527 0.984,5.055 0.984,11.793 0.984,17.41 z"
         style="fill:#000000;fill-opacity:1;fill-rule:nonzero;stroke:none"
         id="path13054" />
      <path
         d="m 858.617,478.895 c 0,-2.524 -2.105,-4.77 -4.633,-4.77 -2.668,0 -4.773,2.246 -4.773,4.77 0,2.667 2.105,4.773 4.773,4.773 2.528,0 4.633,-2.106 4.633,-4.773 z"
         style="fill:#000000;fill-opacity:1;fill-rule:nonzero;stroke:none"
         id="path13056" />
      <path
         d="m 903.859,483.668 v -2.805 h -2.808 c -8.141,0 -8.281,-0.984 -8.281,-4.215 v -50.253 c 0,-2.247 0,-2.387 -2.106,-2.387 -5.617,5.754 -13.476,5.754 -16.285,5.754 v 2.808 c 1.824,0 7.019,0 11.652,-2.386 v 46.464 c 0,3.231 -0.281,4.215 -8.281,4.215 h -2.809 v 2.805 c 3.09,-0.281 10.809,-0.281 14.457,-0.281 3.512,0 11.372,0 14.461,0.281 z"
         style="fill:#000000;fill-opacity:1;fill-rule:nonzero;stroke:none"
         id="path13058" />
      <path
         d="m 601.434,701.992 c 0,-7.16 -0.418,-14.32 -3.508,-20.918 -4.071,-8.703 -11.512,-10.105 -15.16,-10.105 -5.477,0 -11.934,2.386 -15.723,10.668 -2.809,6.175 -3.231,13.195 -3.231,20.355 0,6.738 0.282,14.738 4.071,21.617 3.793,7.161 10.39,8.985 14.742,8.985 4.773,0 11.652,-1.824 15.582,-10.387 2.809,-6.176 3.227,-13.195 3.227,-20.215 z m -7.297,-1.125 c 0,6.738 0,12.778 -0.985,18.531 -1.402,8.563 -6.457,11.231 -10.527,11.231 -3.512,0 -8.844,-2.246 -10.387,-10.809 -0.984,-5.336 -0.984,-13.617 -0.984,-18.953 0,-5.754 0,-11.648 0.703,-16.422 1.684,-10.668 8.422,-11.511 10.668,-11.511 2.949,0 8.844,1.683 10.527,10.527 0.985,5.055 0.985,11.793 0.985,17.406 z"
         style="fill:#000000;fill-opacity:1;fill-rule:nonzero;stroke:none"
         id="path13060" />
      <path
         d="m 622.18,725.855 c 0,-2.527 -2.106,-4.773 -4.633,-4.773 -2.664,0 -4.77,2.246 -4.77,4.773 0,2.668 2.106,4.774 4.77,4.774 2.527,0 4.633,-2.106 4.633,-4.774 z"
         style="fill:#000000;fill-opacity:1;fill-rule:nonzero;stroke:none"
         id="path13062" />
      <path
         d="m 670.09,715.047 h -2.106 c -0.562,2.668 -1.125,6.598 -2.105,8.004 -0.563,0.699 -6.457,0.699 -8.422,0.699 h -16.145 l 9.547,-9.266 c 13.895,-12.351 19.231,-17.125 19.231,-26.109 0,-10.246 -8,-17.406 -18.953,-17.406 -10.106,0 -16.703,8.281 -16.703,16.285 0,4.91 4.492,4.91 4.773,4.91 1.543,0 4.633,-0.98 4.633,-4.769 0,-2.247 -1.688,-4.633 -4.774,-4.633 -0.703,0 -0.843,0 -1.125,0.14 1.965,-5.898 6.879,-9.125 12.075,-9.125 8.14,0 11.933,7.297 11.933,14.598 0,7.16 -4.351,14.18 -9.406,19.793 l -17.129,19.094 c -0.98,0.98 -0.98,1.261 -0.98,3.367 h 33.269 z"
         style="fill:#000000;fill-opacity:1;fill-rule:nonzero;stroke:none"
         id="path13064" />
      <path
         d="m 837.871,701.996 c 0,-7.16 -0.422,-14.32 -3.508,-20.918 -4.07,-8.703 -11.511,-10.105 -15.16,-10.105 -5.476,0 -11.933,2.386 -15.723,10.668 -2.808,6.175 -3.23,13.195 -3.23,20.355 0,6.738 0.281,14.738 4.07,21.617 3.793,7.16 10.391,8.985 14.742,8.985 4.774,0 11.649,-1.825 15.583,-10.387 2.804,-6.18 3.226,-13.195 3.226,-20.215 z m -7.297,-1.125 c 0,6.738 0,12.777 -0.984,18.531 -1.402,8.563 -6.457,11.231 -10.528,11.231 -3.511,0 -8.843,-2.246 -10.39,-10.809 -0.981,-5.336 -0.981,-13.617 -0.981,-18.953 0,-5.754 0,-11.652 0.7,-16.422 1.687,-10.672 8.425,-11.511 10.671,-11.511 2.946,0 8.844,1.683 10.528,10.527 0.984,5.055 0.984,11.793 0.984,17.406 z"
         style="fill:#000000;fill-opacity:1;fill-rule:nonzero;stroke:none"
         id="path13066" />
      <path
         d="m 858.617,725.859 c 0,-2.527 -2.105,-4.773 -4.633,-4.773 -2.668,0 -4.773,2.246 -4.773,4.773 0,2.668 2.105,4.774 4.773,4.774 2.528,0 4.633,-2.106 4.633,-4.774 z"
         style="fill:#000000;fill-opacity:1;fill-rule:nonzero;stroke:none"
         id="path13068" />
      <path
         d="m 903.859,730.633 v -2.809 h -2.808 c -8.141,0 -8.281,-0.98 -8.281,-4.211 v -50.254 c 0,-2.246 0,-2.386 -2.106,-2.386 -5.617,5.754 -13.476,5.754 -16.285,5.754 v 2.808 c 1.824,0 7.019,0 11.652,-2.387 v 46.465 c 0,3.231 -0.281,4.211 -8.281,4.211 h -2.809 v 2.809 c 3.09,-0.281 10.809,-0.281 14.457,-0.281 3.512,0 11.372,0 14.461,0.281 z"
         style="fill:#000000;fill-opacity:1;fill-rule:nonzero;stroke:none"
         id="path13070" />
      <path
         d="m 1071.152,948.957 c 0,-7.16 -0.422,-14.32 -3.511,-20.918 -4.071,-8.703 -11.512,-10.105 -15.161,-10.105 -5.476,0 -11.933,2.386 -15.722,10.668 -2.809,6.175 -3.231,13.195 -3.231,20.355 0,6.738 0.282,14.738 4.075,21.617 3.789,7.16 10.386,8.985 14.738,8.985 4.773,0 11.652,-1.825 15.582,-10.387 2.808,-6.18 3.23,-13.195 3.23,-20.215 z m -7.3,-1.125 c 0,6.738 0,12.777 -0.985,18.531 -1.402,8.563 -6.457,11.231 -10.527,11.231 -3.508,0 -8.844,-2.246 -10.387,-10.809 -0.984,-5.336 -0.984,-13.617 -0.984,-18.953 0,-5.754 0,-11.652 0.703,-16.422 1.683,-10.672 8.422,-11.512 10.668,-11.512 2.949,0 8.844,1.684 10.527,10.528 0.985,5.054 0.985,11.793 0.985,17.406 z"
         style="fill:#000000;fill-opacity:1;fill-rule:nonzero;stroke:none"
         id="path13072" />
      <path
         d="m 1091.898,972.82 c 0,-2.527 -2.109,-4.773 -4.632,-4.773 -2.668,0 -4.774,2.246 -4.774,4.773 0,2.668 2.106,4.774 4.774,4.774 2.523,0 4.632,-2.106 4.632,-4.774 z"
         style="fill:#000000;fill-opacity:1;fill-rule:nonzero;stroke:none"
         id="path13074" />
      <path
         d="m 1140.789,948.957 c 0,-7.16 -0.422,-14.32 -3.512,-20.918 -4.07,-8.703 -11.511,-10.105 -15.16,-10.105 -5.476,0 -11.933,2.386 -15.722,10.668 -2.809,6.175 -3.227,13.195 -3.227,20.355 0,6.738 0.277,14.738 4.07,21.617 3.789,7.16 10.387,8.985 14.739,8.985 4.773,0 11.652,-1.825 15.582,-10.387 2.808,-6.18 3.23,-13.195 3.23,-20.215 z m -7.301,-1.125 c 0,6.738 0,12.777 -0.984,18.531 -1.402,8.563 -6.457,11.231 -10.527,11.231 -3.508,0 -8.844,-2.246 -10.387,-10.809 -0.985,-5.336 -0.985,-13.617 -0.985,-18.953 0,-5.754 0,-11.652 0.704,-16.422 1.683,-10.672 8.421,-11.512 10.668,-11.512 2.949,0 8.843,1.684 10.527,10.528 0.984,5.054 0.984,11.793 0.984,17.406 z"
         style="fill:#000000;fill-opacity:1;fill-rule:nonzero;stroke:none"
         id="path13076" />
      <path
         d="m 837.871,948.957 c 0,-7.156 -0.422,-14.316 -3.508,-20.914 -4.07,-8.703 -11.511,-10.109 -15.16,-10.109 -5.476,0 -11.933,2.386 -15.723,10.671 -2.808,6.176 -3.23,13.196 -3.23,20.352 0,6.738 0.281,14.742 4.07,21.621 3.793,7.16 10.391,8.984 14.742,8.984 4.774,0 11.649,-1.824 15.583,-10.39 2.804,-6.176 3.226,-13.195 3.226,-20.215 z m -7.297,-1.121 c 0,6.738 0,12.773 -0.984,18.531 -1.402,8.563 -6.457,11.231 -10.528,11.231 -3.511,0 -8.843,-2.246 -10.39,-10.813 -0.981,-5.332 -0.981,-13.613 -0.981,-18.949 0,-5.754 0,-11.652 0.7,-16.426 1.687,-10.668 8.425,-11.508 10.671,-11.508 2.946,0 8.844,1.684 10.528,10.528 0.984,5.054 0.984,11.793 0.984,17.406 z"
         style="fill:#000000;fill-opacity:1;fill-rule:nonzero;stroke:none"
         id="path13078" />
      <path
         d="m 858.617,972.824 c 0,-2.527 -2.105,-4.773 -4.633,-4.773 -2.668,0 -4.773,2.246 -4.773,4.773 0,2.668 2.105,4.774 4.773,4.774 2.528,0 4.633,-2.106 4.633,-4.774 z"
         style="fill:#000000;fill-opacity:1;fill-rule:nonzero;stroke:none"
         id="path13080" />
      <path
         d="m 903.859,977.598 v -2.809 h -2.808 c -8.141,0 -8.281,-0.984 -8.281,-4.211 V 920.32 c 0,-2.246 0,-2.386 -2.106,-2.386 -5.617,5.757 -13.476,5.757 -16.285,5.757 v 2.809 c 1.824,0 7.019,0 11.652,-2.387 v 46.465 c 0,3.227 -0.281,4.211 -8.281,4.211 h -2.809 v 2.809 c 3.09,-0.282 10.809,-0.282 14.457,-0.282 3.512,0 11.372,0 14.461,0.282 z"
         style="fill:#000000;fill-opacity:1;fill-rule:nonzero;stroke:none"
         id="path13082" />
      <path
         d="m 343.953,701.992 c 0,-7.156 -0.422,-14.316 -3.512,-20.914 -4.07,-8.703 -11.507,-10.109 -15.16,-10.109 -5.472,0 -11.929,2.386 -15.722,10.668 -2.805,6.179 -3.227,13.199 -3.227,20.355 0,6.738 0.281,14.742 4.07,21.621 3.789,7.157 10.387,8.985 14.739,8.985 4.773,0 11.652,-1.828 15.582,-10.391 2.808,-6.176 3.23,-13.195 3.23,-20.215 z m -7.301,-1.121 c 0,6.738 0,12.774 -0.98,18.531 -1.406,8.563 -6.457,11.227 -10.531,11.227 -3.508,0 -8.844,-2.246 -10.387,-10.809 -0.984,-5.332 -0.984,-13.617 -0.984,-18.949 0,-5.758 0,-11.652 0.703,-16.426 1.683,-10.668 8.422,-11.511 10.668,-11.511 2.949,0 8.843,1.687 10.531,10.531 0.98,5.051 0.98,11.789 0.98,17.406 z"
         style="fill:#000000;fill-opacity:1;fill-rule:nonzero;stroke:none"
         id="path13084" />
      <path
         d="m 364.699,725.859 c 0,-2.527 -2.105,-4.773 -4.633,-4.773 -2.668,0 -4.773,2.246 -4.773,4.773 0,2.664 2.105,4.77 4.773,4.77 2.528,0 4.633,-2.106 4.633,-4.77 z"
         style="fill:#000000;fill-opacity:1;fill-rule:nonzero;stroke:none"
         id="path13086" />
      <path
         d="m 413.449,712.383 c 0,-11.371 -8,-19.934 -17.969,-19.934 -6.035,0 -9.406,4.492 -11.23,8.844 v -2.246 c 0,-22.602 11.09,-25.832 15.723,-25.832 2.105,0 5.894,0.562 7.863,3.652 -1.406,0 -4.914,0 -4.914,3.93 0,2.808 2.105,4.211 4.07,4.211 1.403,0 4.211,-0.844 4.211,-4.352 0,-5.336 -3.93,-9.687 -11.371,-9.687 -11.512,0 -23.582,11.511 -23.582,31.304 0,24.004 10.387,30.325 18.668,30.325 9.969,0 18.531,-8.426 18.531,-20.215 z m -8.14,-0.141 c 0,4.352 0,8.844 -1.547,12.07 -2.664,5.336 -6.739,5.758 -8.844,5.758 -5.613,0 -8.281,-5.336 -8.844,-6.738 -1.683,-4.211 -1.683,-11.371 -1.683,-12.914 0,-7.02 2.949,-16.004 10.949,-16.004 1.543,0 5.617,0 8.422,5.613 1.547,3.231 1.547,7.864 1.547,12.215 z"
         style="fill:#000000;fill-opacity:1;fill-rule:nonzero;stroke:none"
         id="path13088" />
      <path
         d="m 457.359,712.664 c 0,-10.672 -7.3,-19.656 -16.988,-19.656 -4.211,0 -8.141,1.406 -11.371,4.633 v -17.547 c 1.824,0.562 4.773,1.125 7.582,1.125 11.09,0 17.406,-8.145 17.406,-9.266 0,-0.562 -0.281,-0.984 -0.98,-0.984 0,0 -0.281,0 -0.703,0.281 -1.825,0.844 -6.176,2.668 -12.215,2.668 -3.508,0 -7.719,-0.703 -11.93,-2.527 -0.703,-0.282 -0.984,-0.282 -0.984,-0.282 -0.981,0 -0.981,0.703 -0.981,2.106 v 26.531 c 0,1.547 0,2.246 1.262,2.246 0.703,0 0.844,-0.14 1.262,-0.699 0.984,-1.406 4.215,-6.32 11.511,-6.32 4.633,0 6.879,4.074 7.582,5.757 1.403,3.368 1.684,6.739 1.684,11.231 0,3.227 0,8.562 -2.246,12.351 -2.105,3.512 -5.473,5.758 -9.547,5.758 -6.457,0 -11.648,-4.773 -13.195,-9.968 0.281,0 0.562,0.14 1.547,0.14 2.945,0 4.492,-2.246 4.492,-4.351 0,-2.246 -1.547,-4.493 -4.492,-4.493 -1.266,0 -4.352,0.704 -4.352,4.774 0,7.719 6.176,16.426 16.141,16.426 10.39,0 19.515,-8.567 19.515,-19.934 z"
         style="fill:#000000;fill-opacity:1;fill-rule:nonzero;stroke:none"
         id="path13090" />
      <path
         d="m 1049.262,701.996 c 0,-7.16 -0.418,-14.32 -3.508,-20.918 -4.07,-8.703 -11.512,-10.105 -15.16,-10.105 -5.477,0 -11.934,2.386 -15.723,10.668 -2.809,6.175 -3.23,13.195 -3.23,20.355 0,6.738 0.281,14.738 4.074,21.617 3.789,7.16 10.387,8.985 14.738,8.985 4.774,0 11.652,-1.825 15.582,-10.387 2.809,-6.176 3.227,-13.195 3.227,-20.215 z m -7.297,-1.121 c 0,6.738 0,12.773 -0.985,18.527 -1.402,8.563 -6.457,11.231 -10.527,11.231 -3.512,0 -8.844,-2.246 -10.387,-10.809 -0.984,-5.336 -0.984,-13.617 -0.984,-18.949 0,-5.758 0,-11.652 0.703,-16.426 1.684,-10.668 8.422,-11.511 10.668,-11.511 2.949,0 8.844,1.683 10.527,10.527 0.985,5.055 0.985,11.793 0.985,17.41 z"
         style="fill:#000000;fill-opacity:1;fill-rule:nonzero;stroke:none"
         id="path13092" />
      <path
         d="m 1070.008,725.859 c 0,-2.527 -2.106,-4.773 -4.633,-4.773 -2.664,0 -4.77,2.246 -4.77,4.773 0,2.668 2.106,4.774 4.77,4.774 2.527,0 4.633,-2.106 4.633,-4.774 z"
         style="fill:#000000;fill-opacity:1;fill-rule:nonzero;stroke:none"
         id="path13094" />
      <path
         d="m 1118.902,701.996 c 0,-7.16 -0.422,-14.32 -3.511,-20.918 -4.071,-8.703 -11.512,-10.105 -15.161,-10.105 -5.476,0 -11.933,2.386 -15.722,10.668 -2.809,6.175 -3.231,13.195 -3.231,20.355 0,6.738 0.282,14.738 4.075,21.617 3.789,7.16 10.386,8.985 14.738,8.985 4.773,0 11.652,-1.825 15.582,-10.387 2.808,-6.176 3.23,-13.195 3.23,-20.215 z m -7.3,-1.121 c 0,6.738 0,12.773 -0.985,18.527 -1.402,8.563 -6.457,11.231 -10.527,11.231 -3.508,0 -8.844,-2.246 -10.387,-10.809 -0.984,-5.336 -0.984,-13.617 -0.984,-18.949 0,-5.758 0,-11.652 0.703,-16.426 1.683,-10.668 8.422,-11.511 10.668,-11.511 2.949,0 8.844,1.683 10.527,10.527 0.985,5.055 0.985,11.793 0.985,17.41 z"
         style="fill:#000000;fill-opacity:1;fill-rule:nonzero;stroke:none"
         id="path13096" />
      <path
         d="m 1162.668,712.664 c 0,-10.668 -7.301,-19.652 -16.984,-19.652 -4.211,0 -8.145,1.402 -11.372,4.633 v -17.547 c 1.825,0.562 4.774,1.121 7.579,1.121 11.093,0 17.41,-8.141 17.41,-9.266 0,-0.558 -0.281,-0.98 -0.985,-0.98 0,0 -0.281,0 -0.703,0.281 -1.824,0.84 -6.175,2.668 -12.211,2.668 -3.511,0 -7.722,-0.703 -11.933,-2.527 -0.699,-0.282 -0.981,-0.282 -0.981,-0.282 -0.984,0 -0.984,0.703 -0.984,2.106 v 26.531 c 0,1.543 0,2.246 1.266,2.246 0.699,0 0.839,-0.141 1.261,-0.703 0.985,-1.402 4.211,-6.316 11.512,-6.316 4.633,0 6.879,4.07 7.578,5.757 1.406,3.368 1.688,6.739 1.688,11.231 0,3.226 0,8.562 -2.247,12.351 -2.105,3.508 -5.476,5.754 -9.546,5.754 -6.457,0 -11.653,-4.769 -13.196,-9.965 0.282,0 0.563,0.141 1.543,0.141 2.949,0 4.492,-2.246 4.492,-4.351 0,-2.247 -1.543,-4.493 -4.492,-4.493 -1.261,0 -4.351,0.703 -4.351,4.774 0,7.719 6.176,16.422 16.144,16.422 10.387,0 19.512,-8.563 19.512,-19.934 z"
         style="fill:#000000;fill-opacity:1;fill-rule:nonzero;stroke:none"
         id="path13098" />
      <path
         d="m 343.367,949.375 c 0,-7.16 -0.418,-14.32 -3.508,-20.918 -4.07,-8.703 -11.511,-10.105 -15.16,-10.105 -5.476,0 -11.933,2.386 -15.722,10.668 -2.809,6.175 -3.231,13.195 -3.231,20.355 0,6.738 0.281,14.738 4.07,21.617 3.793,7.16 10.391,8.985 14.743,8.985 4.773,0 11.652,-1.825 15.582,-10.387 2.808,-6.176 3.226,-13.195 3.226,-20.215 z m -7.297,-1.121 c 0,6.734 0,12.773 -0.984,18.527 -1.402,8.563 -6.457,11.231 -10.527,11.231 -3.512,0 -8.844,-2.246 -10.387,-10.809 -0.984,-5.336 -0.984,-13.617 -0.984,-18.949 0,-5.758 0,-11.652 0.703,-16.426 1.683,-10.668 8.421,-11.512 10.668,-11.512 2.949,0 8.843,1.684 10.527,10.528 0.984,5.054 0.984,11.793 0.984,17.41 z"
         style="fill:#000000;fill-opacity:1;fill-rule:nonzero;stroke:none"
         id="path13100" />
      <path
         d="m 364.113,973.238 c 0,-2.527 -2.105,-4.773 -4.633,-4.773 -2.664,0 -4.769,2.246 -4.769,4.773 0,2.668 2.105,4.774 4.769,4.774 2.528,0 4.633,-2.106 4.633,-4.774 z"
         style="fill:#000000;fill-opacity:1;fill-rule:nonzero;stroke:none"
         id="path13102" />
      <path
         d="m 415.25,920.316 h -21.758 c -10.808,0 -11.09,-1.121 -11.371,-2.808 h -2.246 l -2.945,18.39 h 2.246 c 0.281,-1.402 0.98,-7.019 2.246,-8.14 0.558,-0.563 7.578,-0.563 8.703,-0.563 h 18.527 l -9.964,14.18 c -8.141,12.07 -11.09,24.566 -11.09,33.687 0,0.844 0,4.915 4.211,4.915 4.07,0 4.07,-4.071 4.07,-4.915 v -4.628 c 0,-4.914 0.281,-9.829 0.984,-14.602 0.422,-2.105 1.543,-9.824 5.614,-15.301 l 12.074,-17.125 c 0.699,-0.984 0.699,-1.125 0.699,-3.09 z"
         style="fill:#000000;fill-opacity:1;fill-rule:nonzero;stroke:none"
         id="path13104" />
      <path
         d="m 457.941,960.043 c 0,-10.668 -7.3,-19.652 -16.984,-19.652 -4.211,0 -8.145,1.402 -11.371,4.632 v -17.546 c 1.824,0.562 4.773,1.121 7.578,1.121 11.09,0 17.41,-8.141 17.41,-9.266 0,-0.559 -0.281,-0.98 -0.984,-0.98 0,0 -0.281,0 -0.703,0.281 -1.825,0.84 -6.176,2.668 -12.211,2.668 -3.512,0 -7.723,-0.703 -11.934,-2.528 -0.699,-0.281 -0.98,-0.281 -0.98,-0.281 -0.985,0 -0.985,0.703 -0.985,2.106 v 26.531 c 0,1.543 0,2.246 1.266,2.246 0.699,0 0.84,-0.141 1.262,-0.703 0.984,-1.402 4.211,-6.317 11.511,-6.317 4.633,0 6.879,4.071 7.579,5.758 1.406,3.367 1.687,6.739 1.687,11.231 0,3.226 0,8.562 -2.246,12.351 -2.106,3.508 -5.477,5.754 -9.547,5.754 -6.457,0 -11.652,-4.769 -13.195,-9.965 0.281,0 0.562,0.141 1.543,0.141 2.949,0 4.492,-2.246 4.492,-4.352 0,-2.246 -1.543,-4.492 -4.492,-4.492 -1.262,0 -4.352,0.699 -4.352,4.774 0,7.718 6.176,16.422 16.145,16.422 10.386,0 19.511,-8.563 19.511,-19.934 z"
         style="fill:#000000;fill-opacity:1;fill-rule:nonzero;stroke:none"
         id="path13106" />
      <path
         d="m 579.055,948.961 c 0,-7.16 -0.422,-14.32 -3.508,-20.918 -4.07,-8.703 -11.512,-10.109 -15.16,-10.109 -5.477,0 -11.934,2.386 -15.723,10.671 -2.809,6.176 -3.23,13.196 -3.23,20.356 0,6.734 0.281,14.738 4.07,21.617 3.793,7.16 10.391,8.984 14.742,8.984 4.77,0 11.649,-1.824 15.582,-10.39 2.805,-6.176 3.227,-13.195 3.227,-20.211 z m -7.301,-1.125 c 0,6.738 0,12.773 -0.981,18.531 -1.402,8.563 -6.457,11.231 -10.527,11.231 -3.512,0 -8.844,-2.246 -10.391,-10.809 -0.98,-5.336 -0.98,-13.617 -0.98,-18.953 0,-5.754 0,-11.652 0.699,-16.426 1.688,-10.668 8.426,-11.508 10.672,-11.508 2.945,0 8.844,1.684 10.527,10.528 0.981,5.054 0.981,11.793 0.981,17.406 z"
         style="fill:#000000;fill-opacity:1;fill-rule:nonzero;stroke:none"
         id="path13108" />
      <path
         d="m 599.801,972.824 c 0,-2.527 -2.106,-4.773 -4.633,-4.773 -2.668,0 -4.773,2.246 -4.773,4.773 0,2.668 2.105,4.774 4.773,4.774 2.527,0 4.633,-2.106 4.633,-4.774 z"
         style="fill:#000000;fill-opacity:1;fill-rule:nonzero;stroke:none"
         id="path13110" />
      <path
         d="m 645.043,977.598 v -2.809 h -2.809 c -8.14,0 -8.281,-0.984 -8.281,-4.211 V 920.32 c 0,-2.246 0,-2.386 -2.105,-2.386 -5.618,5.757 -13.477,5.757 -16.286,5.757 v 2.809 c 1.825,0 7.02,0 11.653,-2.387 v 46.465 c 0,3.227 -0.281,4.211 -8.281,4.211 h -2.809 v 2.809 c 3.086,-0.282 10.809,-0.282 14.457,-0.282 3.512,0 11.371,0 14.461,0.282 z"
         style="fill:#000000;fill-opacity:1;fill-rule:nonzero;stroke:none"
         id="path13112" />
      <path
         d="m 692.461,959.629 c 0,-10.668 -7.301,-19.652 -16.988,-19.652 -4.211,0 -8.141,1.402 -11.368,4.628 v -17.546 c 1.825,0.562 4.77,1.125 7.579,1.125 11.089,0 17.406,-8.145 17.406,-9.266 0,-0.563 -0.278,-0.984 -0.981,-0.984 0,0 -0.281,0 -0.703,0.281 -1.824,0.844 -6.176,2.668 -12.211,2.668 -3.511,0 -7.722,-0.703 -11.933,-2.528 -0.703,-0.281 -0.985,-0.281 -0.985,-0.281 -0.98,0 -0.98,0.703 -0.98,2.106 v 26.535 c 0,1.543 0,2.246 1.262,2.246 0.703,0 0.843,-0.141 1.265,-0.703 0.981,-1.406 4.211,-6.317 11.512,-6.317 4.629,0 6.875,4.071 7.578,5.754 1.406,3.371 1.684,6.739 1.684,11.231 0,3.23 0,8.562 -2.246,12.355 -2.106,3.508 -5.473,5.754 -9.543,5.754 -6.457,0 -11.653,-4.773 -13.196,-9.969 0.278,0 0.559,0.141 1.543,0.141 2.949,0 4.492,-2.246 4.492,-4.352 0,-2.246 -1.543,-4.492 -4.492,-4.492 -1.265,0 -4.351,0.703 -4.351,4.774 0,7.722 6.175,16.425 16.144,16.425 10.387,0 19.512,-8.562 19.512,-19.933 z"
         style="fill:#000000;fill-opacity:1;fill-rule:nonzero;stroke:none"
         id="path13114" />
    </g>
  </g>
</svg>
